<?xml version="1.0" standalone="no"?>
<!DOCTYPE svg PUBLIC "-//W3C//DTD SVG 20010904//EN"
 "http://www.w3.org/TR/2001/REC-SVG-20010904/DTD/svg10.dtd">
<svg version="1.0" xmlns="http://www.w3.org/2000/svg"
 width="799.000000pt" height="799.000000pt" viewBox="0 0 799.000000 799.000000"
 preserveAspectRatio="xMidYMid meet">

<g transform="translate(0.000000,799.000000) scale(0.100000,-0.100000)"
fill="#000000" stroke="none">
<path d="M4491 7280 c-153 -32 -205 -61 -726 -402 -489 -319 -584 -381 -929
-603 -225 -145 -295 -196 -360 -260 -75 -74 -129 -135 -121 -135 2 0 -10 -13
-26 -29 -16 -16 -29 -37 -29 -45 0 -9 -5 -16 -12 -16 -6 0 -8 -3 -5 -7 4 -3 3
-11 -2 -17 -13 -17 -62 -163 -67 -199 -2 -18 -6 -43 -10 -57 -7 -35 -7 -168 2
-210 3 -19 6 -45 5 -58 0 -13 4 -20 9 -17 6 3 7 -1 4 -10 -4 -8 -2 -21 4 -28
6 -7 13 -25 16 -41 3 -16 11 -36 18 -45 24 -30 39 -62 33 -71 -4 -6 0 -10 7
-10 8 0 20 -16 27 -35 6 -19 15 -34 19 -32 4 1 9 -2 11 -8 4 -9 50 -61 89
-101 7 -8 18 -14 23 -14 6 0 8 -4 4 -9 -3 -5 4 -12 15 -16 11 -3 20 -13 20
-21 0 -8 5 -12 10 -9 6 3 10 -1 10 -9 0 -9 3 -16 8 -16 13 0 62 -47 55 -54 -3
-3 -1 -6 6 -6 17 0 42 -26 33 -35 -4 -5 -2 -5 4 -2 6 3 29 -14 52 -38 23 -25
42 -43 42 -40 0 3 22 -17 49 -45 27 -27 54 -50 61 -50 6 0 8 -4 5 -10 -3 -5 5
-15 19 -21 14 -7 23 -15 21 -19 -3 -5 2 -10 10 -14 8 -3 15 -12 15 -21 0 -8 4
-14 9 -13 5 2 17 -6 26 -17 9 -11 13 -13 9 -5 -4 8 7 -1 25 -20 18 -19 35 -35
39 -35 4 0 30 -22 58 -50 54 -54 114 -104 126 -105 4 0 22 -14 40 -31 18 -16
45 -35 61 -42 15 -6 27 -15 27 -19 0 -4 6 -5 14 -2 8 3 17 0 21 -5 3 -6 11 -9
16 -6 5 4 9 1 9 -5 0 -6 5 -8 10 -5 6 3 10 2 10 -2 0 -5 8 -9 18 -10 9 0 27
-4 40 -7 105 -28 241 -37 317 -21 17 4 39 8 50 9 29 4 103 24 155 42 48 17
496 239 518 256 6 6 12 8 12 4 0 -3 17 4 38 17 33 21 269 139 282 142 3 0 44
20 92 43 47 23 89 42 92 42 6 0 29 14 141 86 63 40 210 184 254 247 111 163
141 330 106 597 -66 495 -172 1196 -191 1260 -39 130 -124 259 -238 358 -67
58 -229 144 -316 168 -69 18 -231 26 -289 14z m284 -26 c33 -8 101 -35 150
-59 192 -95 329 -248 394 -441 11 -35 48 -253 85 -505 116 -792 128 -894 123
-999 -12 -223 -119 -405 -318 -541 -55 -37 -1021 -524 -1135 -572 -32 -14 -79
-31 -104 -37 -57 -16 -160 -28 -160 -20 0 4 37 11 83 17 92 13 221 59 210 76
-3 6 -1 7 5 3 13 -8 143 54 136 66 -3 4 3 5 12 1 13 -5 15 -3 9 7 -5 8 -4 11
3 6 16 -10 364 166 349 177 -8 6 -6 7 5 3 20 -6 50 3 44 13 -3 4 0 13 6 21 8
12 9 12 4 -2 -6 -20 6 -23 35 -7 11 5 16 15 13 21 -4 6 -3 8 4 4 6 -3 36 5 67
19 49 21 55 27 46 43 -7 14 -6 19 4 19 7 0 11 -6 8 -14 -7 -18 5 -16 53 10 28
15 40 28 39 40 -2 9 1 15 6 11 5 -3 7 -10 4 -15 -4 -5 -1 -9 6 -9 18 0 221
111 215 117 -3 3 -12 0 -20 -6 -12 -10 -19 -9 -37 8 -13 12 -26 21 -29 21 -4
0 -7 7 -7 15 0 21 6 19 29 -10 23 -30 49 -33 45 -6 -4 28 -27 51 -49 51 -10 0
-16 5 -13 10 4 6 11 7 17 4 6 -4 8 -3 5 3 -4 6 5 15 20 22 14 6 23 14 21 17
-3 3 -32 -11 -64 -31 -33 -20 -49 -34 -37 -30 18 5 22 3 17 -9 -5 -12 -10 -13
-25 -5 -11 6 -26 6 -35 1 -13 -7 -12 -12 6 -35 16 -20 17 -25 6 -21 -9 3 -16
9 -16 13 0 3 -4 12 -9 19 -6 10 -44 -5 -164 -64 -103 -52 -152 -81 -144 -87 7
-5 4 -6 -9 -3 -14 5 -21 2 -21 -9 0 -11 7 -14 21 -9 17 4 18 3 6 -5 -9 -7 -10
-11 -3 -11 6 0 11 -9 10 -19 -1 -15 -4 -17 -14 -9 -7 5 -11 14 -8 18 3 4 -2
11 -11 14 -8 3 -12 10 -9 16 10 16 -6 11 -65 -20 -43 -22 -51 -30 -37 -35 9
-4 17 -12 17 -17 0 -7 -5 -6 -13 1 -8 6 -18 7 -22 3 -5 -4 -5 -1 -1 6 4 6 4
12 0 12 -4 0 -72 -32 -151 -70 -92 -45 -141 -75 -137 -82 4 -6 3 -8 -4 -4 -6
3 -68 -20 -139 -53 -156 -72 -225 -91 -335 -91 -163 0 -312 55 -432 159 -39
33 -74 57 -79 54 -6 -3 -7 -2 -4 4 7 11 -95 112 -298 293 -250 223 -426 405
-463 478 -66 134 -80 326 -33 472 23 73 86 172 152 240 24 25 45 48 45 53 1 4
2 13 3 20 1 9 3 9 10 -1 6 -10 51 14 181 99 147 96 170 115 156 125 -15 11
-15 12 0 18 23 9 34 7 34 -4 0 -5 -8 -7 -17 -3 -14 5 -15 3 -6 -7 9 -10 16 -9
33 3 13 9 17 17 11 22 -6 3 -11 12 -11 18 0 7 5 4 11 -5 5 -10 16 -15 25 -11
12 4 12 8 2 22 -12 14 -11 14 4 3 19 -15 42 -7 32 10 -4 7 -2 8 4 4 6 -4 36
10 67 30 54 36 55 37 38 58 -18 21 -18 21 3 3 21 -17 23 -17 58 4 36 21 49 36
21 25 -8 -3 -15 0 -15 6 0 6 -7 20 -17 30 -15 17 -15 18 1 18 9 0 15 -4 11 -9
-3 -5 5 -17 17 -25 28 -20 39 -20 32 -1 -4 8 -1 15 6 15 6 0 8 -5 4 -11 -4 -7
-2 -10 5 -8 19 7 14 24 -9 27 -11 2 -20 11 -19 20 0 11 3 12 6 5 2 -7 16 -13
29 -13 14 0 22 -4 19 -10 -7 -11 8 -14 18 -3 11 11 -13 32 -31 27 -9 -3 1 5
23 17 22 12 42 26 43 31 2 4 17 15 34 24 22 12 27 19 19 27 -6 6 -11 19 -11
29 0 10 -4 18 -9 18 -5 0 -8 -11 -7 -24 0 -13 4 -22 8 -20 4 3 5 -2 2 -11 -4
-9 -9 -13 -12 -11 -3 3 -11 1 -19 -5 -9 -9 -13 -8 -14 0 -1 6 -2 16 -3 21 0 6
-4 10 -8 10 -5 0 -13 0 -20 0 -6 0 -3 -10 8 -22 10 -12 13 -18 5 -13 -10 6
-12 2 -6 -16 7 -24 7 -24 -9 -4 -17 20 -17 20 -11 -5 5 -19 4 -22 -4 -10 -9
13 -11 12 -11 -3 0 -10 -5 -15 -10 -12 -6 4 -8 10 -5 15 3 4 2 10 -2 13 -5 2
-2 2 5 0 8 -1 12 3 9 9 -2 7 -10 12 -16 11 -6 -2 -11 2 -11 7 0 6 5 10 12 10
6 0 9 3 6 6 -9 9 -89 -46 -83 -56 10 -16 38 -12 32 4 -3 8 0 17 7 19 10 4 12
-1 8 -15 -4 -16 -2 -19 9 -13 11 6 12 5 2 -6 -7 -7 -14 -24 -14 -38 -2 -25 -2
-25 -6 -3 -3 13 -12 26 -21 29 -9 4 -20 10 -23 15 -7 10 -41 -1 -34 -11 2 -4
-1 -8 -8 -8 -7 0 -31 -12 -55 -28 -33 -22 -40 -31 -31 -41 7 -9 8 -14 1 -14
-6 0 -12 5 -14 12 -3 8 -22 1 -56 -21 -51 -32 -67 -49 -37 -38 8 4 17 2 19 -2
3 -5 -8 -8 -24 -7 -16 0 -29 -3 -27 -9 1 -5 5 -9 9 -8 4 2 12 -7 18 -20 10
-20 10 -20 -3 -4 -14 17 -15 16 -21 -8 -4 -16 -11 -23 -18 -19 -9 6 -9 9 0 12
14 4 16 28 2 37 -9 6 -366 -218 -445 -279 -57 -44 -86 -77 -78 -89 3 -6 1 -7
-5 -3 -12 7 -46 -35 -89 -114 -35 -63 -58 -129 -78 -226 -13 -63 -14 -64 -10
-16 14 140 101 318 200 411 58 54 136 106 735 493 140 91 413 269 607 395 193
127 382 249 420 272 174 103 343 130 528 85z m-1524 -797 c-10 -9 -11 -8 -5 6
3 10 9 15 12 12 3 -3 0 -11 -7 -18z m-38 -37 c3 -11 2 -18 -3 -15 -4 3 -10 14
-13 25 -3 11 -2 18 3 15 4 -3 10 -14 13 -25z m-37 -9 c-1 -16 -5 -33 -10 -38
-5 -4 -6 4 -2 20 4 18 2 27 -6 27 -9 0 -8 3 2 10 8 5 15 10 16 10 1 0 1 -13 0
-29z m98 -26 c-4 -8 -11 -12 -16 -9 -6 4 -5 10 3 15 19 12 19 11 13 -6z m-189
-33 c-3 -3 -11 0 -18 7 -9 10 -8 11 6 5 10 -3 15 -9 12 -12z m141 6 c4 -6 3
-8 -3 -5 -6 4 -14 0 -17 -9 -4 -9 -11 -12 -18 -7 -7 4 -16 8 -20 8 -15 0 -20
15 -5 15 9 0 19 -5 23 -11 5 -8 10 -6 16 5 11 19 14 20 24 4z m-71 -28 c3 -6
-1 -7 -9 -4 -18 7 -21 14 -7 14 6 0 13 -4 16 -10z m-48 -22 c-3 -8 -6 -5 -6 6
-1 11 2 17 5 13 3 -3 4 -12 1 -19z m38 2 c3 -6 -1 -7 -9 -4 -18 7 -21 14 -7
14 6 0 13 -4 16 -10z m-188 -32 c-3 -8 -6 -5 -6 6 -1 11 2 17 5 13 3 -3 4 -12
1 -19z m-13 -94 c3 -8 2 -12 -4 -9 -6 3 -10 10 -10 16 0 14 7 11 14 -7z m-179
-83 c3 -5 0 -13 -6 -17 -7 -4 -9 -3 -5 4 3 5 0 13 -6 15 -9 4 -10 6 -1 6 6 1
14 -3 18 -8z m-483 -608 c-5 -76 -10 -83 -11 -15 0 34 2 62 7 62 4 0 6 -21 4
-47z m5 -125 c-3 -7 -5 -2 -5 12 0 14 2 19 5 13 2 -7 2 -19 0 -25z m10 -50
c-3 -7 -5 -2 -5 12 0 14 2 19 5 13 2 -7 2 -19 0 -25z m53 -143 c0 -5 -5 -3
-10 5 -5 8 -10 20 -10 25 0 6 5 3 10 -5 5 -8 10 -19 10 -25z m30 -55 c6 -11 8
-20 6 -20 -3 0 -10 9 -16 20 -6 11 -8 20 -6 20 3 0 10 -9 16 -20z m31 -47 c13
-16 12 -17 -3 -4 -10 7 -18 15 -18 17 0 8 8 3 21 -13z m45 -55 l29 -33 -32 29
c-18 17 -33 31 -33 33 0 8 8 1 36 -29z m109 -118 c38 -38 67 -70 64 -70 -2 0
-36 32 -74 70 -38 39 -67 70 -64 70 2 0 36 -31 74 -70z m209 -197 c9 -21 3
-16 -49 39 l-50 52 46 -39 c26 -22 49 -46 53 -52z m2356 52 c7 -9 8 -15 2 -15
-5 0 -12 7 -16 15 -3 8 -4 15 -2 15 2 0 9 -7 16 -15z m-80 -22 c0 -8 3 -12 8
-9 4 2 16 -3 27 -11 19 -15 19 -15 -5 -8 -33 9 -68 42 -46 42 9 0 16 -7 16
-14z m-90 -23 c0 -5 -8 -10 -17 -10 -15 0 -16 2 -3 10 19 12 20 12 20 0z m110
-20 c0 -5 -8 -10 -17 -10 -15 0 -16 2 -3 10 19 12 20 12 20 0z m-2190 -87 c0
-8 -9 0 -50 45 l-45 47 48 -45 c26 -24 47 -45 47 -47z m2088 69 c2 -7 -1 -12
-8 -12 -6 0 -9 4 -6 9 4 5 1 12 -4 14 -6 3 -5 4 2 3 6 -1 14 -8 16 -14z m142
4 c-7 -7 -14 -6 -21 1 -9 9 -7 12 9 10 14 -1 18 -5 12 -11z m-240 -21 c11 -13
10 -14 -5 -9 -14 6 -16 4 -10 -7 8 -12 6 -12 -8 0 -9 7 -14 17 -11 22 8 13 20
11 34 -6z m180 -3 c0 -4 -12 -9 -27 -10 -15 -1 -29 -6 -32 -10 -7 -8 -18 -8
-41 1 -8 3 -22 8 -30 10 -10 4 -7 6 7 6 12 1 25 -3 28 -9 4 -6 16 -5 34 5 16
8 31 11 35 8 3 -4 6 -1 6 6 0 7 5 9 10 6 6 -3 10 -9 10 -13z m-209 -29 c13
-16 12 -17 -3 -4 -17 13 -22 21 -14 21 2 0 10 -8 17 -17z m-73 -11 c-25 -16
-25 -19 -10 -30 13 -9 11 -9 -11 0 l-27 11 27 18 c16 10 33 18 38 18 6 1 -2
-7 -17 -17z m116 -7 c-4 -10 0 -15 11 -15 9 0 13 -5 9 -11 -4 -7 -11 -6 -21 4
-9 8 -12 20 -9 26 10 16 16 13 10 -4z m-48 -7 c4 -7 3 -8 -5 -4 -6 4 -14 0
-17 -8 -3 -9 -10 -13 -16 -10 -5 3 -1 12 9 20 22 17 20 16 29 2z m-1671 -248
c49 -47 110 -102 135 -124 25 -21 31 -29 14 -18 -29 20 -270 240 -379 346 -67
66 116 -97 230 -204z m1599 201 c3 -5 -3 -11 -14 -14 -11 -3 -23 0 -27 5 -3 6
-1 8 5 4 6 -3 13 -2 17 4 8 12 12 13 19 1z m-173 -38 c13 -16 12 -17 -3 -4
-17 13 -22 21 -14 21 2 0 10 -8 17 -17z m74 7 c3 -6 -1 -7 -9 -4 -18 7 -21 14
-7 14 6 0 13 -4 16 -10z m-115 -49 c0 -6 -5 -13 -12 -17 -6 -4 -8 -3 -4 4 3 5
0 13 -6 15 -8 3 -6 6 5 6 9 1 17 -3 17 -8z m-104 -23 c4 -7 3 -8 -4 -4 -7 4
-12 2 -12 -5 0 -7 -3 -10 -6 -6 -6 5 3 27 11 27 2 0 7 -5 11 -12z m78 -4 c3
-8 2 -12 -4 -9 -6 3 -10 10 -10 16 0 14 7 11 14 -7z m-28 -19 c9 -8 11 -15 6
-15 -5 0 -15 7 -22 15 -7 8 -9 15 -6 15 4 0 14 -7 22 -15z m-22 -24 c-2 -3
-12 3 -22 13 -16 17 -16 18 5 5 12 -7 20 -15 17 -18z m-87 -13 c-3 -8 -6 -5
-6 6 -1 11 2 17 5 13 3 -3 4 -12 1 -19z m127 3 c3 -5 -1 -11 -9 -14 -9 -4 -12
-1 -8 9 6 16 10 17 17 5z m-136 -36 c-3 -3 -9 2 -12 12 -6 14 -5 15 5 6 7 -7
10 -15 7 -18z m-988 -191 c0 -2 -9 0 -20 6 -11 6 -20 13 -20 16 0 2 9 0 20 -6
11 -6 20 -13 20 -16z m105 -41 c33 -13 47 -21 30 -18 -16 4 -52 17 -80 31 -56
27 -40 23 50 -13z m98 -30 c-7 -2 -19 -2 -25 0 -7 3 -2 5 12 5 14 0 19 -2 13
-5z m60 -10 c-7 -2 -19 -2 -25 0 -7 3 -2 5 12 5 14 0 19 -2 13 -5z m135 -10
c-10 -2 -28 -2 -40 0 -13 2 -5 4 17 4 22 1 32 -1 23 -4z"/>
<path d="M4186 7115 c-11 -8 -15 -15 -9 -15 6 0 16 7 23 15 16 19 11 19 -14 0z"/>
<path d="M4146 7092 c-3 -5 1 -9 9 -9 8 0 12 4 9 9 -3 4 -7 8 -9 8 -2 0 -6 -4
-9 -8z"/>
<path d="M4455 7086 c-22 -7 -69 -28 -105 -46 -67 -34 -85 -45 -380 -238 -96
-63 -332 -216 -525 -340 -708 -456 -809 -524 -859 -588 -98 -126 -136 -231
-136 -380 0 -106 27 -224 66 -293 31 -54 292 -316 489 -491 77 -68 198 -180
268 -247 102 -97 144 -130 201 -158 148 -71 326 -89 464 -47 40 13 323 147
629 298 l556 275 72 72 c133 134 177 266 156 471 -20 198 -150 1109 -176 1237
-31 145 -94 261 -188 344 -60 54 -189 118 -265 134 -70 15 -217 13 -267 -3z
m329 -110 c66 -31 152 -104 209 -178 51 -65 96 -197 112 -328 4 -30 8 -58 10
-61 2 -3 15 -88 30 -190 14 -101 30 -209 35 -239 5 -30 12 -77 15 -105 2 -27
6 -59 9 -70 5 -26 18 -133 21 -165 1 -14 5 -38 8 -55 4 -16 9 -49 12 -72 3
-24 8 -62 11 -85 4 -24 8 -72 9 -108 2 -36 4 -67 5 -70 1 -3 2 -7 2 -10 -16
-218 -28 -256 -107 -336 -60 -61 -75 -70 -605 -333 -298 -149 -570 -280 -604
-292 -84 -29 -238 -36 -329 -15 -138 32 -198 70 -367 227 -85 79 -222 205
-305 279 -236 212 -399 378 -427 435 -53 105 -63 152 -63 285 1 104 4 135 23
184 26 72 82 154 140 207 42 40 315 222 800 533 136 88 319 207 407 264 458
301 513 330 654 346 24 3 46 7 48 9 12 13 185 -28 247 -57z"/>
<path d="M4064 7034 c-18 -14 -18 -15 4 -4 12 6 22 13 22 15 0 8 -5 6 -26 -11z"/>
<path d="M3985 6984 c-27 -19 -52 -39 -54 -46 -2 -6 7 -2 19 10 23 21 35 26
53 23 5 -1 6 3 3 8 -4 5 3 12 14 16 11 3 20 11 20 16 0 12 2 13 -55 -27z"/>
<path d="M4127 6939 c7 -7 15 -10 18 -7 3 3 -2 9 -12 12 -14 6 -15 5 -6 -5z"/>
<path d="M3838 6888 c-42 -29 -74 -56 -71 -61 3 -5 9 -4 13 3 4 7 10 8 12 4 3
-5 3 -3 2 4 -2 7 6 12 18 12 12 0 18 3 15 6 -8 8 38 46 50 42 4 -2 9 1 10 5 1
5 10 15 20 23 44 33 0 9 -69 -38z"/>
<path d="M4103 6923 c4 -3 -1 -12 -11 -20 -15 -13 -15 -13 6 -3 19 9 23 30 5
30 -4 0 -3 -3 0 -7z"/>
<path d="M4050 6881 c-8 -6 -18 -7 -24 -4 -5 3 -6 1 -2 -5 5 -9 13 -9 27 -2
10 6 19 13 19 15 0 7 -3 6 -20 -4z"/>
<path d="M3945 6869 c-4 -6 -4 -13 -1 -16 3 -4 6 -1 6 6 0 7 5 9 12 5 7 -4 8
-3 4 4 -9 15 -13 15 -21 1z"/>
<path d="M3840 6850 c0 -5 5 -10 11 -10 5 0 7 5 4 10 -3 6 -8 10 -11 10 -2 0
-4 -4 -4 -10z"/>
<path d="M3972 6834 c-7 -8 -8 -14 -3 -14 10 0 25 19 20 25 -2 1 -10 -3 -17
-11z"/>
<path d="M3655 6768 c-49 -32 -136 -89 -193 -126 -57 -36 -98 -68 -92 -70 9
-3 9 -6 0 -12 -9 -5 -9 -9 -1 -14 6 -4 11 -2 11 4 0 6 5 8 13 4 9 -6 9 -4 -1
8 -11 14 -10 18 6 27 15 8 23 7 31 -3 6 -7 8 -16 4 -19 -3 -4 -2 -7 4 -7 6 0
14 7 17 16 8 22 8 26 -4 19 -5 -3 -10 1 -10 9 0 20 16 29 39 21 13 -4 18 -13
16 -25 -2 -11 1 -20 7 -20 6 0 8 -9 5 -20 -3 -11 0 -20 6 -20 7 0 6 -4 -3 -10
-9 -6 -17 -5 -21 2 -10 15 -29 0 -29 -22 0 -13 -5 -17 -14 -14 -22 8 -47 -9
-37 -25 12 -19 61 14 62 43 0 17 2 18 7 5 6 -15 18 -10 79 30 83 54 98 66 61
52 -20 -7 -29 -7 -37 3 -13 15 -5 46 11 46 6 0 6 -6 -1 -14 -7 -9 -8 -17 -2
-20 5 -3 12 0 14 6 4 10 6 10 6 0 1 -7 5 -10 11 -7 14 9 -11 45 -32 45 -9 0
-19 -8 -21 -17 -4 -14 -5 -12 -6 5 0 12 -4 21 -8 20 -5 -2 -8 2 -8 7 0 6 5 9
12 9 7 -1 11 1 10 5 -1 3 2 6 8 6 5 0 9 -7 7 -15 -3 -13 -2 -13 8 0 9 11 13
12 17 2 2 -6 9 -10 14 -7 5 4 6 0 3 -8 -6 -17 14 -33 26 -21 4 5 10 25 14 44
4 25 3 31 -4 20 -5 -8 -10 -25 -10 -38 0 -13 -4 -21 -10 -17 -5 3 -7 12 -4 19
3 8 -5 16 -20 20 -14 3 -26 11 -26 17 0 6 7 9 15 5 9 -3 15 0 15 10 0 8 5 12
11 9 6 -4 8 -14 5 -22 -3 -8 -1 -11 4 -8 6 3 10 13 10 21 0 16 29 51 31 37 1
-4 1 -17 0 -28 -1 -18 1 -17 11 3 9 18 9 25 -1 31 -10 6 -9 10 3 14 9 4 16 2
16 -3 0 -5 10 -7 21 -5 25 5 38 15 21 15 -7 0 -12 8 -12 17 0 15 2 15 14 3 8
-8 17 -37 20 -65 5 -45 4 -48 -8 -26 -10 17 -14 20 -18 9 -4 -8 2 -19 11 -25
14 -9 25 -6 51 10 29 18 31 22 14 27 -21 8 -26 30 -9 43 6 5 4 7 -5 4 -8 -2
-14 -10 -12 -16 1 -6 -2 -11 -8 -11 -14 0 -13 23 2 38 9 9 8 12 -8 12 -11 0
-24 4 -29 9 -6 5 -47 -16 -100 -51z m148 -33 c4 -8 2 -17 -3 -20 -6 -4 -10 -4
-10 -1 0 2 -3 11 -6 20 -3 9 -2 16 4 16 5 0 12 -7 15 -15z m-248 -115 c-3 -4
2 -10 10 -14 8 -3 15 -13 15 -21 0 -9 -5 -13 -10 -10 -6 4 -7 11 -4 17 5 7 2
8 -5 4 -7 -5 -10 -15 -7 -23 4 -8 1 -11 -5 -8 -6 4 -8 14 -5 22 4 11 1 13 -14
8 -22 -7 -29 18 -8 31 7 4 8 3 4 -4 -4 -7 -3 -12 2 -12 16 0 22 13 11 26 -8
10 -16 11 -29 4 -13 -7 -21 -6 -26 2 -4 6 -3 8 3 5 6 -4 16 0 23 8 11 13 15
12 31 -6 10 -12 16 -25 14 -29z m-21 -55 c3 -8 1 -15 -4 -15 -6 0 -10 7 -10
15 0 8 2 15 4 15 2 0 6 -7 10 -15z"/>
<path d="M3930 6821 c0 -6 4 -13 10 -16 6 -3 7 1 4 9 -7 18 -14 21 -14 7z"/>
<path d="M3889 6809 c-1 -2 -3 -14 -4 -26 -2 -21 -1 -21 21 -6 13 8 24 18 24
21 0 3 -3 2 -7 -1 -3 -4 -12 -2 -20 4 -7 6 -14 10 -14 8z"/>
<path d="M3858 6767 c-3 -19 -2 -25 4 -19 6 6 8 18 6 28 -3 14 -5 12 -10 -9z"/>
<path d="M3720 6730 c0 -6 -4 -8 -10 -5 -5 3 -12 -6 -16 -20 -3 -13 -10 -22
-15 -19 -5 3 -9 -5 -9 -18 0 -19 2 -20 11 -8 9 12 10 11 6 -8 -5 -22 -5 -22
25 -5 39 23 52 39 38 48 -5 3 -10 2 -10 -4 0 -6 -8 -15 -18 -20 -15 -8 -18 -5
-20 15 -2 25 13 34 20 12 3 -7 7 -2 10 10 4 12 2 25 -3 28 -5 3 -9 0 -9 -6z"/>
<path d="M3656 6623 c-6 -14 -5 -15 5 -6 7 7 10 15 7 18 -3 3 -9 -2 -12 -12z"/>
<path d="M5381 6214 c0 -11 3 -14 6 -6 3 7 2 16 -1 19 -3 4 -6 -2 -5 -13z"/>
<path d="M5402 6080 c0 -14 2 -19 5 -12 2 6 2 18 0 25 -3 6 -5 1 -5 -13z"/>
<path d="M5411 6014 c0 -11 3 -14 6 -6 3 7 2 16 -1 19 -3 4 -6 -2 -5 -13z"/>
<path d="M5429 5878 c4 -28 6 -29 9 -9 2 13 0 27 -5 32 -6 6 -7 -3 -4 -23z"/>
<path d="M5442 5810 c0 -14 2 -19 5 -12 2 6 2 18 0 25 -3 6 -5 1 -5 -13z"/>
<path d="M5452 5720 c0 -14 2 -19 5 -12 2 6 2 18 0 25 -3 6 -5 1 -5 -13z"/>
<path d="M5458 5653 c5 -21 7 -23 10 -9 2 10 0 22 -6 28 -6 6 -7 0 -4 -19z"/>
<path d="M5473 5575 c0 -22 2 -30 4 -17 2 12 2 30 0 40 -3 9 -5 -1 -4 -23z"/>
<path d="M5482 5500 c0 -19 2 -27 5 -17 2 9 2 25 0 35 -3 9 -5 1 -5 -18z"/>
<path d="M5495 5290 c0 -90 3 -150 6 -134 9 40 9 210 1 258 -4 22 -7 -33 -7
-124z"/>
<path d="M5372 5275 c0 -16 2 -22 5 -12 2 9 2 23 0 30 -3 6 -5 -1 -5 -18z"/>
<path d="M5347 5123 c-4 -24 -3 -25 7 -11 9 12 16 14 23 7 6 -6 10 -5 10 6 0
8 -3 13 -5 10 -3 -3 -11 0 -17 5 -9 8 -14 3 -18 -17z"/>
<path d="M5480 5107 c0 -19 -15 -23 -25 -7 -3 6 -14 10 -23 10 -12 0 -10 -4 7
-13 13 -6 23 -15 22 -19 -1 -5 -4 -21 -7 -38 -4 -17 -11 -27 -17 -23 -6 3 -7
1 -3 -5 9 -15 -43 -104 -56 -96 -6 4 -5 10 3 15 8 5 10 9 4 9 -5 0 -3 5 5 10
8 5 11 10 5 10 -27 0 -43 -34 -25 -54 13 -16 3 -26 -18 -19 -15 4 -15 3 -2 -6
11 -8 12 -11 2 -11 -7 0 -11 -4 -7 -9 3 -5 1 -12 -4 -15 -5 -4 -12 4 -14 16
-3 18 -5 17 -6 -7 -1 -21 -4 -26 -10 -16 -5 7 -14 10 -20 6 -9 -5 -7 -11 6
-21 10 -7 13 -14 6 -14 -6 0 -18 7 -27 15 -19 20 -27 19 -19 -2 5 -12 3 -14
-7 -8 -9 5 -11 4 -6 -3 10 -16 -6 -15 -24 1 -12 10 -12 9 -1 -5 8 -11 9 -18 3
-18 -23 0 -24 24 -3 41 12 10 21 21 19 26 -2 4 6 9 17 11 16 3 17 1 5 -7 -13
-9 -13 -11 3 -11 9 0 17 5 17 11 0 6 7 8 16 5 8 -3 13 -2 10 3 -3 4 -20 8 -37
9 -17 0 -37 6 -43 13 -8 9 -6 10 11 7 17 -5 21 -2 18 13 -2 10 1 22 7 25 6 4
8 3 5 -3 -4 -6 0 -19 8 -29 12 -16 17 -17 35 -6 11 7 26 9 33 5 7 -4 7 0 -2
10 -9 11 -10 17 -2 17 6 0 11 6 11 13 -1 6 -11 0 -23 -15 -23 -28 -47 -37 -47
-17 0 5 5 7 12 3 7 -4 8 -3 4 4 -4 7 -2 12 4 12 6 0 9 4 6 9 -3 5 8 14 24 20
17 5 30 13 30 16 0 3 -5 3 -10 0 -6 -3 -18 2 -28 11 -16 17 -16 17 6 12 12 -3
22 -2 22 2 0 5 -10 11 -22 13 l-23 4 23 2 c19 1 21 4 12 21 -9 17 -8 20 12 20
21 0 21 0 2 14 -17 13 -20 13 -25 -2 -3 -9 -4 -24 -1 -32 3 -8 2 -12 -3 -8 -4
4 -29 -23 -55 -60 -26 -37 -62 -80 -79 -96 -23 -22 -28 -32 -19 -38 10 -6 10
-8 1 -8 -7 0 -13 -10 -13 -22 1 -22 1 -23 15 -4 17 22 20 10 5 -14 -9 -13 -12
-13 -24 3 -15 19 -26 22 -26 6 0 -13 25 -39 38 -39 6 0 8 -8 5 -19 -9 -35 15
-31 73 12 68 50 112 98 164 178 40 62 87 176 76 186 -3 3 -6 -1 -6 -10z m-170
-147 c-5 -3 -16 -15 -24 -25 -13 -18 -13 -18 -12 1 2 10 6 27 10 37 7 14 11
15 23 6 9 -8 10 -14 3 -19z m-93 -99 c-1 -12 -7 -17 -19 -13 -10 2 -15 8 -12
13 3 5 10 7 15 4 5 -4 9 -1 9 4 0 6 2 11 4 11 3 0 4 -8 3 -19z m57 -63 c-7
-15 -74 -73 -74 -64 0 7 67 76 74 76 3 0 3 -6 0 -12z m-60 -25 c-5 -5 -12 -12
-16 -18 -4 -6 -8 -2 -8 8 0 9 7 17 17 17 9 0 12 -3 7 -7z"/>
<path d="M5403 5100 c2 -8 12 -16 23 -17 13 -2 15 -1 4 4 -8 3 -19 11 -23 17
-6 7 -7 6 -4 -4z"/>
<path d="M5372 5051 c-11 -7 -11 -9 0 -14 9 -3 15 1 15 9 0 8 -1 14 -1 14 -1
0 -7 -4 -14 -9z"/>
<path d="M5420 5050 c0 -5 5 -10 11 -10 5 0 7 5 4 10 -3 6 -8 10 -11 10 -2 0
-4 -4 -4 -10z"/>
<path d="M5360 5005 c0 -5 5 -17 10 -25 5 -8 10 -10 10 -5 0 6 -5 17 -10 25
-5 8 -10 11 -10 5z"/>
<path d="M5621 3519 c-147 -29 -244 -87 -314 -189 -17 -25 -34 -47 -37 -50 -9
-6 -42 -70 -48 -90 -14 -49 -9 -138 10 -189 23 -60 56 -121 66 -121 4 0 21
-12 37 -26 17 -15 42 -31 57 -36 16 -6 25 -15 21 -21 -3 -5 -2 -7 4 -4 12 7
63 -14 63 -26 0 -5 4 -6 9 -2 6 3 26 -4 46 -15 19 -11 42 -20 49 -20 8 0 17
-7 20 -16 4 -9 13 -14 21 -10 8 3 15 1 15 -5 0 -6 5 -7 10 -4 6 3 10 2 10 -3
0 -5 10 -13 23 -17 12 -4 24 -8 27 -9 18 -6 63 -35 55 -36 -5 0 0 -6 11 -14
12 -9 20 -25 19 -43 0 -15 3 -31 8 -34 5 -4 4 -17 -3 -29 -10 -18 -10 -21 2
-14 11 6 11 5 -1 -9 -19 -24 -75 -37 -161 -37 -59 0 -83 5 -114 23 -58 33 -75
63 -89 152 l-12 80 -45 3 c-66 5 -130 -7 -130 -23 0 -8 -6 -18 -13 -22 -25
-16 -35 -79 -34 -206 2 -128 2 -129 30 -153 15 -13 37 -24 49 -24 23 0 97 -20
113 -30 11 -7 295 -5 335 3 41 8 202 65 209 74 3 4 24 21 46 37 69 50 116 99
143 151 23 43 27 62 27 140 0 81 -3 95 -30 144 -54 98 -154 165 -355 236 -130
46 -151 57 -200 101 -64 58 -67 134 -8 168 40 22 168 35 168 17 0 -7 5 -9 11
-6 21 14 88 -46 116 -104 16 -31 35 -62 43 -69 24 -20 139 -11 172 13 l27 20
1 157 c0 155 0 158 -22 162 -157 34 -357 45 -457 25z m314 -14 c55 -8 112 -18
128 -21 l27 -6 0 -144 0 -145 -67 3 c-51 2 -68 7 -70 18 -1 8 -4 32 -8 52 -24
149 -288 201 -398 79 -43 -47 -53 -97 -32 -148 32 -76 91 -113 300 -189 122
-44 199 -89 253 -148 74 -80 97 -178 68 -280 -62 -211 -400 -311 -756 -224
l-95 24 -3 157 -3 157 71 0 70 0 0 -30 c0 -55 22 -131 46 -160 36 -43 104 -64
200 -64 99 0 161 22 203 69 58 66 51 159 -16 214 -20 17 -106 58 -190 92 -162
65 -249 112 -298 160 -26 25 -28 31 -15 40 12 9 12 10 -3 5 -43 -14 -74 148
-47 246 24 84 125 179 234 217 121 43 238 50 401 26z"/>
<path d="M5778 3493 c7 -3 16 -2 19 1 4 3 -2 6 -13 5 -11 0 -14 -3 -6 -6z"/>
<path d="M5823 3493 c9 -2 25 -2 35 0 9 3 1 5 -18 5 -19 0 -27 -2 -17 -5z"/>
<path d="M5535 3460 c-3 -6 1 -7 9 -4 18 7 21 14 7 14 -6 0 -13 -4 -16 -10z"/>
<path d="M5470 3434 c-50 -29 -80 -53 -80 -66 0 -4 9 1 20 12 12 12 26 18 32
14 7 -4 8 -3 4 4 -4 7 9 19 34 32 22 11 40 23 40 25 0 7 -1 7 -50 -21z"/>
<path d="M5488 3413 c7 -3 16 -2 19 1 4 3 -2 6 -13 5 -11 0 -14 -3 -6 -6z"/>
<path d="M5362 3350 c-7 -12 -8 -20 -2 -20 5 0 10 5 10 11 0 5 4 7 10 4 6 -3
7 1 4 9 -8 20 -7 20 -22 -4z"/>
<path d="M5495 3310 c-8 -16 -14 -51 -14 -77 l2 -48 6 55 c4 30 12 65 19 78 7
12 10 22 8 22 -3 0 -12 -13 -21 -30z"/>
<path d="M5335 3309 c-4 -6 -4 -13 -1 -16 3 -4 6 -1 6 6 0 7 5 9 12 5 7 -4 8
-3 4 4 -9 15 -13 15 -21 1z"/>
<path d="M5371 3284 c0 -11 3 -14 6 -6 3 7 2 16 -1 19 -3 4 -6 -2 -5 -13z"/>
<path d="M5302 3200 c0 -19 2 -27 5 -17 2 9 2 25 0 35 -3 9 -5 1 -5 -18z"/>
<path d="M5490 3173 c0 -18 59 -82 91 -99 41 -20 36 -10 -6 16 -20 12 -47 38
-60 58 -14 20 -25 31 -25 25z"/>
<path d="M5300 3131 c0 -25 6 -27 13 -6 4 8 2 17 -3 20 -6 4 -10 -3 -10 -14z"/>
<path d="M5316 3068 c3 -5 10 -6 15 -3 13 9 11 12 -6 12 -8 0 -12 -4 -9 -9z"/>
<path d="M5465 3061 c-3 -5 -2 -12 3 -15 5 -3 9 1 9 9 0 17 -3 19 -12 6z"/>
<path d="M5398 3043 c7 -3 16 -2 19 1 4 3 -2 6 -13 5 -11 0 -14 -3 -6 -6z"/>
<path d="M5644 3041 c3 -4 23 -13 45 -21 23 -7 41 -17 41 -22 0 -5 4 -7 8 -4
9 5 95 -23 139 -46 13 -6 25 -9 28 -6 6 6 -50 29 -183 77 -45 16 -80 26 -78
22z"/>
<path d="M5420 3011 c0 -6 4 -13 10 -16 6 -3 7 1 4 9 -7 18 -14 21 -14 7z"/>
<path d="M5920 2936 c0 -3 14 -13 32 -22 17 -9 57 -40 87 -68 30 -28 48 -41
40 -30 -27 40 -159 139 -159 120z"/>
<path d="M5550 2880 c-8 -5 -10 -10 -5 -10 6 0 17 5 25 10 8 5 11 10 5 10 -5
0 -17 -5 -25 -10z"/>
<path d="M5586 2858 c3 -5 10 -6 15 -3 13 9 11 12 -6 12 -8 0 -12 -4 -9 -9z"/>
<path d="M5649 2852 c9 -7 10 -11 2 -15 -7 -4 -8 -5 0 -3 15 2 13 20 -3 24
-10 3 -10 2 1 -6z"/>
<path d="M5773 2831 c0 -11 5 -18 9 -15 4 3 5 11 1 19 -7 21 -12 19 -10 -4z"/>
<path d="M5704 2811 c9 -15 46 -20 53 -8 3 7 3 9 -1 5 -5 -4 -19 -3 -33 3 -13
5 -22 5 -19 0z"/>
<path d="M5990 2810 c0 -5 5 -10 11 -10 5 0 7 5 4 10 -3 6 -8 10 -11 10 -2 0
-4 -4 -4 -10z"/>
<path d="M6090 2789 c0 -4 7 -22 15 -40 8 -19 14 -27 14 -19 0 14 -28 72 -29
59z"/>
<path d="M6123 2655 c0 -33 2 -45 4 -27 2 18 2 45 0 60 -2 15 -4 0 -4 -33z"/>
<path d="M5290 2654 c0 -16 4 -23 11 -18 6 3 15 1 19 -7 10 -15 40 -21 40 -7
0 6 -6 8 -12 6 -13 -5 -50 27 -42 35 10 9 44 -5 37 -16 -3 -6 -1 -7 5 -3 26
16 12 36 -23 36 -31 0 -35 -3 -35 -26z"/>
<path d="M5370 2660 c-8 -15 -7 -23 7 -37 10 -10 20 -30 22 -43 4 -29 36 -96
51 -105 12 -7 4 -25 -11 -25 -6 0 -7 6 -4 13 3 6 -2 1 -12 -12 -16 -22 -29
-60 -16 -47 3 3 14 -5 24 -17 l18 -22 -2 22 c-1 12 -3 20 -6 18 -2 -3 -10 0
-17 6 -14 12 -10 29 7 29 6 0 7 -4 4 -10 -3 -5 -2 -10 4 -10 5 0 12 9 16 19 6
19 7 19 35 3 31 -18 41 -36 15 -26 -10 4 -15 0 -15 -15 0 -12 4 -21 10 -21 5
0 7 8 3 18 -3 9 -3 14 2 10 4 -4 14 -3 22 3 10 9 13 8 13 -4 0 -24 -40 -49
-57 -35 -7 6 -16 8 -20 4 -3 -3 0 -6 8 -7 8 -1 3 -5 -11 -10 -25 -9 -25 -9 3
-5 15 2 30 -1 33 -5 3 -5 11 -9 17 -9 8 0 8 3 -1 9 -11 7 -11 9 2 14 10 4 16
1 16 -8 0 -11 10 -15 33 -14 28 2 29 2 5 6 -30 5 -44 28 -22 37 9 3 12 10 9
16 -3 5 -2 10 4 10 5 0 14 -6 18 -12 10 -16 53 -19 50 -4 -3 18 42 19 49 2 3
-9 13 -16 22 -16 13 0 12 3 -4 15 -22 17 -12 20 18 4 15 -8 19 -8 14 0 -4 6 0
11 11 11 10 0 42 11 72 25 44 21 56 23 70 13 14 -12 14 -11 2 5 -12 15 -11 20
5 40 14 16 11 15 -11 -4 -58 -51 -93 -63 -205 -67 -100 -4 -108 -2 -159 25
-64 33 -87 71 -103 167 -11 69 -20 79 -38 46z m247 -256 c-3 -3 -12 -4 -19 -1
-8 3 -5 6 6 6 11 1 17 -2 13 -5z"/>
<path d="M5921 2624 c0 -11 3 -14 6 -6 3 7 2 16 -1 19 -3 4 -6 -2 -5 -13z"/>
<path d="M5293 2598 c0 -13 6 -26 12 -30 6 -5 6 -8 -2 -8 -7 0 -13 -7 -13 -16
0 -8 5 -12 10 -9 6 3 10 1 10 -4 0 -6 -4 -11 -9 -11 -5 0 -9 -14 -9 -31 1 -19
4 -25 9 -18 4 7 6 16 3 21 -6 10 28 48 38 42 4 -3 8 -10 8 -15 0 -6 -4 -7 -10
-4 -6 3 -7 -1 -4 -9 3 -9 1 -16 -5 -16 -6 0 -11 -9 -11 -20 0 -11 -7 -20 -15
-20 -10 0 -15 -10 -15 -31 0 -18 4 -28 10 -24 6 4 8 16 4 28 -6 22 -6 22 10 2
17 -23 21 -39 6 -30 -5 3 -10 1 -10 -5 0 -7 7 -10 15 -7 8 4 17 1 21 -4 3 -6
17 -8 31 -4 14 3 22 2 19 -3 -3 -6 3 -12 14 -15 27 -7 25 7 -4 26 -17 12 -26
13 -35 4 -8 -8 -11 -6 -11 9 0 16 -2 17 -10 4 -9 -14 -10 -13 -10 18 0 4 5 8
10 8 6 1 13 2 16 3 3 0 -4 10 -17 21 -13 10 -20 19 -16 20 15 0 49 -39 42 -49
-3 -6 -3 -11 2 -11 4 0 17 18 27 40 l19 39 -24 20 c-13 12 -18 20 -11 21 8 0
10 5 6 12 -5 7 -9 21 -9 30 -2 25 -9 30 -44 32 -17 0 -31 4 -31 8 0 5 -4 8 -9
8 -6 0 -9 -10 -8 -22z m46 -22 c8 -5 16 -3 22 5 10 16 11 14 13 -24 2 -21 -2
-26 -14 -21 -8 4 -23 6 -33 6 -12 -1 -17 4 -14 12 3 8 1 18 -5 24 -13 13 9 11
31 -2z m60 -85 c8 -5 7 -13 -4 -27 -14 -18 -14 -18 -10 3 2 13 -1 26 -7 29 -6
4 -8 3 -5 -2 10 -18 -7 -33 -20 -18 -10 10 -9 16 4 29 12 12 18 13 23 5 4 -7
13 -15 19 -19z m-64 -51 c3 -5 1 -10 -4 -10 -6 0 -11 5 -11 10 0 6 2 10 4 10
3 0 8 -4 11 -10z"/>
<path d="M5332 2565 c15 -16 20 -17 30 -6 11 11 10 13 0 7 -7 -4 -21 -2 -30 5
-15 12 -15 11 0 -6z"/>
<path d="M5926 2588 c-11 -36 -13 -57 -5 -52 5 3 9 16 9 29 0 13 6 26 13 28 9
4 9 6 -1 6 -7 1 -14 -5 -16 -11z"/>
<path d="M6111 2574 c0 -11 3 -14 6 -6 3 7 2 16 -1 19 -3 4 -6 -2 -5 -13z"/>
<path d="M5950 2556 c0 -2 8 -10 18 -17 15 -13 16 -12 3 4 -13 16 -21 21 -21
13z"/>
<path d="M6095 2539 c-4 -6 -5 -12 -2 -15 2 -3 7 2 10 11 7 17 1 20 -8 4z"/>
<path d="M6070 2495 c-7 -9 -11 -17 -9 -20 3 -2 10 5 17 15 14 24 10 26 -8 5z"/>
<path d="M6005 2439 c-16 -10 -25 -19 -19 -19 7 0 22 9 35 20 30 24 23 24 -16
-1z"/>
<path d="M5930 2440 c-12 -7 -10 -9 7 -7 12 0 19 5 17 9 -6 10 -6 10 -24 -2z"/>
<path d="M5901 2414 c0 -11 3 -14 6 -6 3 7 2 16 -1 19 -3 4 -6 -2 -5 -13z"/>
<path d="M5460 2411 c0 -6 4 -12 8 -15 5 -3 9 1 9 9 0 8 -4 15 -9 15 -4 0 -8
-4 -8 -9z"/>
<path d="M5830 2375 c14 -8 30 -14 35 -14 6 0 -1 6 -15 14 -14 8 -29 14 -35
14 -5 0 1 -6 15 -14z"/>
<path d="M5603 2351 c0 -11 5 -18 9 -15 4 3 5 11 1 19 -7 21 -12 19 -10 -4z"/>
<path d="M5817 2359 c7 -7 15 -10 18 -7 3 3 -2 9 -12 12 -14 6 -15 5 -6 -5z"/>
<path d="M5701 2348 c-31 -11 -26 -14 22 -10 67 5 75 8 35 13 -20 3 -46 1 -57
-3z"/>
<path d="M5630 2340 c0 -6 7 -10 15 -10 8 0 15 2 15 4 0 2 -7 6 -15 10 -8 3
-15 1 -15 -4z"/>
<path d="M463 3491 c-3 -11 -10 -21 -15 -21 -5 0 -16 -16 -24 -35 -11 -28 -12
-40 -3 -58 7 -12 11 -23 10 -25 -2 -2 1 -7 5 -10 4 -4 3 0 -1 8 -5 8 5 2 22
-15 16 -16 28 -33 26 -37 -2 -5 4 -8 14 -8 11 0 14 -3 7 -8 -6 -4 -9 -16 -7
-27 10 -41 10 -154 0 -148 -5 3 -5 -2 1 -13 5 -11 7 -25 4 -33 -3 -8 0 -11 6
-7 7 4 8 -3 3 -21 -9 -32 -7 -116 3 -132 4 -6 3 -11 -1 -11 -11 0 -9 -311 1
-329 5 -8 4 -16 -4 -21 -9 -6 -9 -12 -1 -29 8 -15 9 -21 1 -21 -6 0 -8 -4 -5
-10 3 -5 0 -10 -7 -10 -7 0 -4 -6 7 -13 18 -11 17 -12 -15 -17 -23 -3 -36 -11
-38 -23 -2 -11 -12 -27 -23 -38 -28 -28 -24 -66 10 -97 25 -21 41 -26 98 -28
37 -2 98 -4 136 -6 38 -2 69 1 71 7 3 6 5 4 5 -3 1 -7 6 -10 12 -7 17 11 109
11 109 0 0 -5 4 -4 8 2 6 9 17 10 40 4 22 -7 32 -6 32 1 0 6 6 6 15 -2 10 -8
15 -9 15 -2 0 7 15 10 36 8 19 -1 37 1 40 6 3 5 10 6 15 2 5 -3 24 0 43 6 18
6 42 12 52 14 10 3 31 9 47 15 15 6 27 8 27 5 0 -4 6 -1 14 5 8 7 24 14 37 16
12 3 25 8 28 12 3 5 18 14 33 22 15 8 37 23 48 33 11 10 20 16 20 13 0 -2 31
29 70 70 87 95 133 187 155 309 19 112 19 177 -1 274 -33 159 -99 271 -202
340 -133 89 -205 102 -635 109 l-338 6 -6 -22z m795 -25 c252 -65 382 -250
382 -541 0 -180 -39 -299 -130 -397 -45 -50 -129 -109 -175 -123 -11 -4 9 10
45 31 169 98 243 246 244 484 1 124 -19 211 -70 312 -34 68 -113 142 -190 178
-105 51 -191 61 -559 70 l-330 8 360 -3 c294 -2 372 -6 423 -19z m-715 -43
c-7 -2 -19 -2 -25 0 -7 3 -2 5 12 5 14 0 19 -2 13 -5z m58 -20 c13 -16 12 -17
-3 -4 -10 7 -18 15 -18 17 0 8 8 3 21 -13z m374 -948 c155 0 218 18 287 83 55
51 93 111 113 175 8 24 14 33 14 21 2 -38 -61 -146 -116 -200 -42 -43 -67 -58
-121 -75 -83 -26 -283 -39 -307 -19 -13 11 -15 72 -15 465 0 250 3 462 8 472
4 10 9 -193 12 -452 l5 -470 120 0z m23 928 c-27 -2 -69 -2 -95 0 -27 2 -5 3
47 3 52 0 74 -1 48 -3z m-381 -696 c-1 -127 -2 -23 -2 233 0 256 1 360 2 232
2 -127 2 -337 0 -465z m516 682 c22 -6 37 -12 35 -14 -2 -2 -26 2 -53 10 -28
7 -43 14 -35 14 8 1 32 -4 53 -10z m72 -29 c3 -6 -1 -7 -9 -4 -18 7 -21 14 -7
14 6 0 13 -4 16 -10z m80 -60 c21 -22 37 -40 34 -40 -3 0 -23 18 -44 40 -21
22 -37 40 -34 40 3 0 23 -18 44 -40z m-409 -10 c3 0 15 5 26 11 16 9 23 8 29
-2 6 -10 9 -10 9 -2 0 7 6 10 13 7 7 -2 28 -6 47 -9 70 -9 99 -17 118 -35 11
-11 23 -16 26 -13 3 4 6 1 6 -6 0 -7 5 -9 12 -5 6 4 8 3 5 -3 -7 -12 28 -44
39 -35 4 4 4 -1 1 -10 -3 -10 -3 -17 1 -15 4 1 9 -2 12 -8 2 -5 11 -18 20 -28
8 -10 15 -21 15 -25 1 -4 7 -18 14 -31 8 -14 9 -21 2 -17 -6 4 -11 3 -11 -3 0
-5 5 -11 11 -13 7 -2 12 -18 13 -36 0 -18 6 -32 11 -32 6 0 3 -5 -5 -10 -10
-6 -11 -10 -2 -10 6 0 12 -5 12 -11 0 -5 -5 -7 -12 -3 -7 5 -8 3 -3 -7 9 -13
14 -166 6 -183 -2 -4 -5 -25 -7 -45 -2 -20 -6 -47 -9 -61 -4 -14 -8 -33 -9
-42 -9 -72 -175 -134 -337 -126 l-64 3 -1 420 c-1 231 0 412 3 403 2 -10 7
-18 9 -18z m492 -115 c-3 -3 -9 2 -12 12 -6 14 -5 15 5 6 7 -7 10 -15 7 -18z
m27 -92 l4 -48 -9 44 c-5 23 -12 53 -15 65 -5 18 -4 18 5 4 5 -9 12 -38 15
-65z m12 -195 c-2 -29 -3 -8 -3 47 0 55 1 79 3 53 2 -26 2 -71 0 -100z m-10
-95 c-3 -10 -5 -4 -5 12 0 17 2 24 5 18 2 -7 2 -21 0 -30z m-859 -356 c-28 -6
-49 -17 -51 -26 -3 -11 -5 -9 -6 6 -1 26 11 32 64 31 l40 -1 -47 -10z"/>
<path d="M2209 3500 c-9 -5 -22 -23 -29 -40 -7 -17 -15 -28 -18 -26 -6 7 -42
-33 -42 -46 0 -6 -9 -23 -21 -39 -11 -16 -18 -29 -14 -29 3 0 0 -10 -7 -22 -7
-13 -12 -26 -13 -30 0 -3 -3 -10 -7 -14 -5 -4 -8 -16 -8 -26 0 -10 -5 -18 -11
-18 -5 0 -7 -4 -4 -10 3 -5 -1 -22 -9 -37 -16 -31 -27 -61 -23 -67 1 -2 -6
-13 -17 -25 -10 -11 -16 -27 -13 -36 4 -8 2 -15 -3 -15 -6 0 -10 -8 -10 -18 0
-10 -9 -35 -20 -57 -11 -22 -20 -45 -20 -53 0 -7 -4 -10 -10 -7 -6 3 -10 -4
-10 -17 0 -21 -38 -126 -50 -138 -3 -3 -6 -15 -7 -28 -2 -12 -10 -39 -19 -60
-10 -20 -18 -40 -18 -44 -1 -3 -4 -10 -8 -14 -5 -4 -8 -17 -8 -29 0 -11 -4
-25 -9 -30 -5 -6 -11 -23 -13 -40 -3 -34 -14 -45 -44 -45 -12 0 -29 -11 -40
-24 -10 -14 -22 -22 -26 -20 -5 3 -8 2 -7 -3 1 -4 0 -10 -1 -13 -1 -3 -3 -22
-4 -43 -2 -31 3 -42 24 -57 14 -10 28 -18 33 -19 4 -1 8 -1 10 -2 13 -4 57 -3
57 1 0 4 18 6 40 6 22 -1 40 -5 40 -9 0 -5 6 -5 13 0 12 8 33 10 112 12 26 1
56 11 83 29 42 26 43 28 40 77 l-3 50 -47 7 c-63 9 -70 14 -63 50 11 49 45
119 56 113 5 -4 9 -1 9 4 0 6 5 11 11 11 5 0 7 -6 3 -12 -6 -10 -5 -10 7 -1
15 12 92 16 85 4 -2 -3 11 -6 30 -7 24 0 30 2 22 9 -9 6 -6 6 7 2 23 -9 49
-13 83 -14 13 -1 21 -5 18 -10 -7 -10 22 -24 34 -16 4 3 14 -10 21 -28 7 -17
19 -38 26 -45 7 -7 10 -19 7 -27 -4 -10 0 -15 12 -16 11 -1 6 -4 -11 -8 -16
-3 -30 -12 -30 -18 0 -7 -8 -18 -17 -25 -21 -17 -37 -77 -27 -103 4 -11 8 -15
9 -10 0 6 5 3 10 -6 7 -12 22 -17 50 -15 22 0 40 -1 40 -4 0 -3 16 -5 35 -5
19 0 35 2 35 5 0 8 184 5 198 -4 6 -4 12 -3 12 2 0 6 26 10 58 10 31 -1 65 3
75 7 9 4 17 3 17 -2 0 -8 63 -17 95 -14 11 1 150 9 248 15 47 2 63 8 88 32 26
25 30 35 27 74 l-3 45 -63 9 c-72 10 -71 5 -31 116 19 52 22 55 57 57 69 4
149 3 173 -3 13 -3 37 -7 53 -9 43 -5 75 -25 69 -43 -4 -10 -2 -13 5 -8 13 8
36 -39 26 -55 -3 -5 1 -9 8 -9 9 0 9 -3 -2 -10 -10 -6 -11 -10 -2 -10 19 0 14
-20 -5 -20 -21 -1 -73 -78 -73 -108 0 -11 9 -30 19 -43 19 -24 21 -24 228 -24
216 -1 245 4 301 43 28 20 32 29 32 68 0 47 -1 49 -75 70 -32 10 -37 22 -300
719 -54 143 -106 279 -116 303 l-18 42 -84 0 c-69 0 -87 -3 -100 -18 -10 -10
-17 -23 -17 -28 0 -5 -16 -24 -35 -43 -19 -18 -32 -37 -29 -42 3 -5 0 -9 -6
-9 -6 0 -9 -4 -5 -9 3 -6 -5 -20 -17 -32 -13 -12 -17 -19 -11 -15 9 5 9 -1 -1
-21 -24 -48 -48 -107 -52 -127 -2 -11 -9 -23 -16 -28 -7 -4 -10 -8 -5 -8 4 0
0 -15 -10 -32 -9 -18 -17 -37 -18 -43 -1 -5 -9 -27 -18 -47 -9 -21 -17 -43
-17 -51 0 -7 -4 -17 -9 -23 -4 -5 -13 -22 -19 -39 -6 -16 -19 -53 -30 -82 -11
-28 -17 -54 -14 -57 3 -3 1 -6 -5 -6 -6 0 -16 -20 -22 -45 -6 -25 -15 -45 -19
-45 -4 0 -8 -9 -9 -19 -1 -10 -11 -39 -22 -64 -12 -25 -21 -53 -21 -61 0 -9
-5 -16 -11 -16 -5 0 -8 -4 -4 -9 3 -5 1 -12 -4 -16 -6 -3 -8 -12 -4 -20 4 -11
-3 -15 -26 -15 -24 0 -31 -4 -31 -19 0 -30 -16 -33 -28 -6 -8 17 -20 25 -36
25 -57 0 -38 -42 -285 620 -77 206 -147 392 -156 413 l-15 37 -88 0 c-48 0
-94 -5 -103 -10z m336 -407 c224 -600 244 -652 263 -657 9 -2 29 -7 45 -10 25
-6 27 -10 25 -49 -1 -42 -1 -42 -5 -6 -4 34 -7 37 -43 43 -25 4 -45 14 -54 29
-8 12 -54 128 -102 257 -48 129 -133 357 -189 505 l-102 270 -77 3 c-66 2 -80
0 -92 -15 -14 -19 -18 -15 -8 11 5 13 24 16 99 16 l92 0 148 -397z m1084 345
c11 -29 89 -233 172 -453 83 -220 162 -429 176 -465 30 -78 39 -90 68 -90 45
0 55 -10 53 -54 l-1 -41 -4 38 c-3 30 -8 37 -26 37 -12 0 -33 3 -46 7 -19 5
-22 3 -16 -8 5 -8 4 -10 0 -6 -5 4 -10 13 -11 20 -1 7 -24 68 -50 137 -27 68
-116 302 -199 520 l-150 395 -74 0 -73 0 -30 -70 c-17 -38 -36 -83 -44 -100
-13 -31 -106 -270 -151 -388 -14 -37 -27 -66 -30 -64 -4 5 133 362 204 530
l45 107 83 0 83 0 21 -52z m-47 5 c-6 -2 -10 -8 -8 -12 6 -9 -53 -5 -62 5 -4
4 0 5 8 2 8 -3 24 -2 35 3 11 4 25 8 30 8 6 -1 4 -3 -3 -6z m-1408 -77 c-14
-37 -28 -65 -30 -63 -2 2 8 33 23 70 14 37 28 65 30 63 2 -2 -8 -34 -23 -70z
m1320 38 c3 -8 2 -12 -4 -9 -6 3 -10 10 -10 16 0 14 7 11 14 -7z m81 -4 c10
-11 16 -20 13 -20 -3 0 -13 9 -23 20 -10 11 -16 20 -13 20 3 0 13 -9 23 -20z
m-87 -85 c-3 -3 -9 2 -12 12 -6 14 -5 15 5 6 7 -7 10 -15 7 -18z m-1357 -52
c-12 -20 -14 -14 -5 12 4 9 9 14 11 11 3 -2 0 -13 -6 -23z m99 -15 c-4 -18
-30 -94 -57 -168 -98 -262 -97 -258 -83 -275 10 -12 40 -15 156 -15 79 0 144
-4 144 -9 0 -10 -292 -7 -309 3 -6 4 -11 18 -11 32 0 20 60 196 151 442 12 33
18 27 9 -10z m1325 22 c3 -6 -1 -7 -10 -4 -11 5 -14 2 -9 -10 3 -9 2 -16 -4
-16 -8 0 -9 16 -3 38 2 6 21 1 26 -8z m-109 -42 c-7 -24 -43 -124 -79 -224
-37 -99 -67 -185 -67 -191 0 -19 29 -23 165 -23 79 0 136 -4 140 -10 8 -13
-255 -13 -289 0 -18 6 -26 17 -26 34 0 22 60 201 109 325 12 30 19 61 16 70
-3 8 -3 12 1 8 4 -4 13 6 20 23 19 44 25 37 10 -12z m65 -79 c14 -31 30 -55
37 -53 7 1 8 0 2 -3 -5 -2 -10 -11 -10 -19 0 -9 4 -12 10 -9 5 3 8 0 5 -7 -3
-7 15 -69 40 -137 25 -68 44 -128 42 -135 -2 -6 -9 5 -14 25 -6 20 -43 122
-82 226 -39 105 -71 199 -70 209 1 11 4 6 9 -11 4 -16 18 -55 31 -86z m-1092
-348 c0 -9 -6 2 -14 24 -7 22 -43 117 -80 210 -37 94 -69 181 -72 195 -2 14
34 -73 81 -194 47 -120 86 -226 85 -235z m-310 400 c-6 -18 -13 -30 -15 -28
-2 2 1 18 7 36 6 18 13 30 15 28 2 -2 -1 -18 -7 -36z m1526 29 c3 -5 1 -10 -4
-10 -6 0 -11 5 -11 10 0 6 2 10 4 10 3 0 8 -4 11 -10z m55 -40 c0 -5 -8 -10
-17 -10 -15 0 -16 2 -3 10 19 12 20 12 20 0z m-150 -20 c6 -11 8 -20 6 -20 -3
0 -10 9 -16 20 -6 11 -8 20 -6 20 3 0 10 -9 16 -20z m104 12 c3 -5 -1 -9 -9
-9 -8 0 -12 4 -9 9 3 4 7 8 9 8 2 0 6 -4 9 -8z m-54 -18 c0 -8 -19 -13 -24 -6
-3 5 1 9 9 9 8 0 15 -2 15 -3z m-1511 -43 c-6 -18 -13 -30 -15 -28 -2 2 1 18
7 36 6 18 13 30 15 28 2 -2 -1 -18 -7 -36z m238 17 c-3 -8 -6 -5 -6 6 -1 11 2
17 5 13 3 -3 4 -12 1 -19z m1299 10 c4 -7 3 -8 -4 -4 -7 4 -12 2 -12 -5 0 -7
-3 -10 -6 -6 -6 5 3 27 11 27 2 0 7 -5 11 -12z m85 -5 c13 -16 12 -17 -3 -4
-17 13 -22 21 -14 21 2 0 10 -8 17 -17z m-35 -15 c3 -4 -1 -5 -10 -4 -8 1 -18
5 -22 8 -3 4 1 5 10 4 8 -1 18 -5 22 -8z m41 -50 c-3 -8 -6 -5 -6 6 -1 11 2
17 5 13 3 -3 4 -12 1 -19z m-1656 -25 c-12 -20 -14 -14 -5 12 4 9 9 14 11 11
3 -2 0 -13 -6 -23z m148 -23 c9 0 33 -46 38 -74 2 -11 8 -25 13 -31 5 -7 7
-15 3 -18 -3 -4 -1 -13 6 -20 6 -8 12 -26 13 -41 2 -18 8 -26 23 -28 11 -1
-23 -4 -75 -8 -101 -7 -120 -5 -120 14 0 23 85 239 88 223 2 -9 7 -17 11 -17z
m1227 -3 c5 -1 8 -5 7 -9 -2 -5 1 -8 5 -8 5 0 14 -12 20 -26 10 -20 10 -24 0
-18 -10 6 -10 5 -1 -7 6 -8 14 -31 18 -51 4 -21 11 -36 15 -33 4 3 8 -1 7 -8
-1 -33 4 -46 21 -50 9 -3 -17 -5 -58 -6 -41 -1 -84 -4 -95 -6 -11 -3 -26 -1
-34 4 -12 8 -8 29 29 126 24 66 46 112 50 105 4 -6 11 -12 16 -13z m324 -9
c11 -3 9 -6 -6 -10 -15 -4 -20 0 -22 16 0 11 2 16 6 10 4 -6 14 -13 22 -16z
m-1719 -15 c-12 -20 -14 -14 -5 12 4 9 9 14 11 11 3 -2 0 -13 -6 -23z m-22
-62 c-6 -18 -13 -30 -15 -28 -2 2 1 18 7 36 6 18 13 30 15 28 2 -2 -1 -18 -7
-36z m1751 9 c0 -5 -2 -10 -4 -10 -3 0 -8 5 -11 10 -3 6 -1 10 4 10 6 0 11 -4
11 -10z m5 -48 c-3 -3 -11 0 -18 7 -9 10 -8 11 6 5 10 -3 15 -9 12 -12z
m-1791 -51 c-9 -23 -18 -40 -20 -38 -2 2 4 22 13 45 9 23 18 40 20 38 2 -2 -4
-22 -13 -45z m1732 27 c5 -7 3 -8 -6 -3 -8 5 -18 1 -27 -10 -7 -11 -13 -14
-13 -9 0 12 21 34 31 34 4 0 11 -5 15 -12z m67 -18 c-3 -11 -9 -17 -15 -14 -5
3 -4 12 3 20 16 19 18 18 12 -6z m-592 -47 c-12 -20 -14 -14 -5 12 4 9 9 14
11 11 3 -2 0 -13 -6 -23z m-71 -188 c-55 -143 -79 -199 -80 -185 0 3 18 52 41
110 22 58 52 136 66 173 14 37 27 66 30 64 2 -2 -24 -75 -57 -162z m387 129
c-3 -3 -12 -4 -19 -1 -8 3 -5 6 6 6 11 1 17 -2 13 -5z m233 0 c0 -8 -19 -13
-24 -6 -3 5 1 9 9 9 8 0 15 -2 15 -3z m-1819 -61 c-12 -20 -14 -14 -5 12 4 9
9 14 11 11 3 -2 0 -13 -6 -23z m454 0 c-172 -7 -343 -7 -338 0 2 4 95 6 206 5
111 -1 171 -3 132 -5z m1317 -18 c6 -13 15 -22 19 -19 5 3 6 -1 4 -8 -3 -8 6
-45 20 -82 14 -38 24 -70 22 -72 -2 -2 -21 41 -42 96 l-38 100 -204 -2 -204
-3 -35 -100 c-19 -55 -34 -112 -34 -127 0 -26 3 -27 60 -34 33 -4 61 -12 62
-18 5 -39 4 -66 -3 -66 -5 0 -9 13 -9 30 0 26 -4 30 -37 35 -69 10 -88 19 -91
43 -3 18 34 136 73 235 7 15 26 17 216 17 l209 0 12 -25z m-1214 -16 c-3 -8
-7 -3 -11 10 -4 17 -3 21 5 13 5 -5 8 -16 6 -23z m-579 -28 c-6 -18 -13 -30
-15 -28 -2 2 1 18 7 36 6 18 13 30 15 28 2 -2 -1 -18 -7 -36z m111 -50 c-31
-85 -38 -135 -19 -146 5 -4 31 -10 57 -13 46 -7 47 -8 50 -45 2 -21 -1 -37 -7
-37 -6 0 -11 13 -11 29 0 27 -3 30 -51 36 -72 10 -80 32 -50 128 30 94 50 141
56 135 3 -3 -8 -42 -25 -87z m1787 54 c0 -8 -4 -12 -9 -9 -5 3 -6 10 -3 15 9
13 12 11 12 -6z m-1297 -30 c0 -5 -5 -3 -10 5 -5 8 -10 20 -10 25 0 6 5 3 10
-5 5 -8 10 -19 10 -25z m1377 9 c-3 -3 -12 -4 -19 -1 -8 3 -5 6 6 6 11 1 17
-2 13 -5z m51 -29 c-3 -3 -9 2 -12 12 -6 14 -5 15 5 6 7 -7 10 -15 7 -18z
m-2059 -34 c-6 -18 -13 -30 -15 -28 -2 2 1 18 7 36 6 18 13 30 15 28 2 -2 -1
-18 -7 -36z m650 -1 c0 -10 -3 -8 -9 5 -12 27 -12 43 0 25 5 -8 9 -22 9 -30z
m1251 -18 c0 -15 -2 -15 -10 -2 -13 20 -13 33 0 25 6 -3 10 -14 10 -23z
m-1230 -37 c0 -5 -5 -3 -10 5 -5 8 -10 20 -10 25 0 6 5 3 10 -5 5 -8 10 -19
10 -25z m-699 -19 c-14 -36 -22 -33 -9 5 6 16 12 28 14 26 3 -2 0 -16 -5 -31z
m2133 -2 c3 -8 2 -12 -4 -9 -6 3 -10 10 -10 16 0 14 7 11 14 -7z m-1427 -16
c-3 -8 -6 -5 -6 6 -1 11 2 17 5 13 3 -3 4 -12 1 -19z m1226 -19 c-8 -28 -12
-23 -11 12 1 17 4 25 8 18 4 -6 5 -20 3 -30z m-2004 -23 c-33 -10 -36 -14 -34
-43 1 -18 -1 -30 -6 -27 -5 3 -9 20 -9 39 0 35 10 43 60 43 20 0 18 -2 -11
-12z m736 4 c-29 -13 -104 -13 -85 0 8 5 35 9 60 9 34 0 40 -2 25 -9z m505 0
c-8 -5 -23 -10 -34 -10 -15 0 -17 -6 -14 -35 2 -19 0 -35 -4 -35 -10 0 -11 74
-1 83 3 4 20 7 37 7 24 0 27 -3 16 -10z m677 -3 l-59 -11 4 -33 c2 -18 0 -33
-4 -33 -4 0 -8 20 -8 45 l0 45 63 -1 62 -2 -58 -10z m-1270 -64 c-3 -10 -5 -2
-5 17 0 19 2 27 5 18 2 -10 2 -26 0 -35z m1673 43 c0 -3 -4 -8 -10 -11 -5 -3
-10 -1 -10 4 0 6 5 11 10 11 6 0 10 -2 10 -4z m-793 -48 c-3 -8 -6 -5 -6 6 -1
11 2 17 5 13 3 -3 4 -12 1 -19z m-217 -4 c0 -2 -15 -4 -32 -3 -27 0 -29 2 -13
8 18 8 45 4 45 -5z m120 0 c0 -2 -16 -4 -35 -4 -19 0 -35 4 -35 8 0 4 16 6 35
4 19 -2 35 -6 35 -8z m600 2 c14 -2 -14 -4 -62 -5 -49 0 -88 2 -88 7 0 6 92 6
150 -2z m-1843 -2 c-3 -3 -12 -4 -19 -1 -8 3 -5 6 6 6 11 1 17 -2 13 -5z m110
0 c-3 -3 -12 -4 -19 -1 -8 3 -5 6 6 6 11 1 17 -2 13 -5z m651 -1 c-10 -2 -28
-2 -40 0 -13 2 -5 4 17 4 22 1 32 -1 23 -4z m85 0 c-7 -2 -19 -2 -25 0 -7 3
-2 5 12 5 14 0 19 -2 13 -5z m64 1 c-3 -3 -12 -4 -19 -1 -8 3 -5 6 6 6 11 1
17 -2 13 -5z m401 -1 c-10 -2 -28 -2 -40 0 -13 2 -5 4 17 4 22 1 32 -1 23 -4z
m760 0 c-38 -2 -98 -2 -135 0 -38 2 -7 3 67 3 74 0 105 -1 68 -3z"/>
<path d="M3920 3496 c0 -8 -4 -16 -10 -18 -5 -1 -15 -19 -23 -38 -17 -41 -8
-75 22 -85 12 -3 19 -11 16 -16 -4 -5 -1 -9 6 -9 22 0 81 -51 75 -66 -3 -8 -2
-13 2 -13 20 3 33 -2 27 -11 -3 -5 5 -20 19 -32 14 -13 39 -49 56 -81 17 -32
40 -68 51 -80 12 -12 28 -37 35 -54 8 -18 19 -33 25 -33 6 0 9 -7 5 -15 -3 -8
-1 -15 4 -15 6 0 10 -9 10 -21 0 -11 5 -17 10 -14 6 3 10 -1 10 -9 0 -9 4 -16
8 -16 8 0 74 -134 79 -160 8 -46 9 -212 0 -217 -5 -3 -3 -9 4 -14 12 -7 11 -9
-1 -10 -10 0 -8 -3 5 -8 15 -6 7 -9 -32 -15 -35 -4 -53 -12 -57 -24 -3 -9 -13
-28 -21 -42 -19 -32 -19 -84 -1 -99 8 -7 26 -13 40 -15 14 -1 29 -5 32 -9 3
-3 17 -2 30 3 16 6 24 6 24 -1 0 -6 4 -8 8 -5 11 6 60 8 135 4 31 -2 57 -1 57
2 0 3 33 5 73 5 92 0 155 12 181 36 11 11 23 19 28 19 4 0 8 26 8 59 l0 58
-76 6 c-42 3 -79 9 -82 12 -4 4 -7 82 -7 174 l0 167 49 79 c26 44 105 166 175
270 123 186 127 191 189 223 l62 33 0 54 0 54 -223 1 -224 1 -26 -39 c-39 -55
-32 -120 13 -130 17 -4 55 -42 62 -61 2 -8 -13 -46 -33 -83 -21 -38 -33 -66
-28 -62 5 3 -6 -18 -24 -48 -19 -29 -44 -70 -55 -92 l-21 -38 -44 69 c-64 99
-177 298 -177 311 0 6 16 20 35 32 53 33 65 48 65 85 0 24 -6 38 -19 45 -12 6
-121 10 -285 10 -223 0 -266 -2 -266 -14z m550 -40 c0 -31 -2 -34 -40 -39 -45
-6 -70 -22 -70 -44 0 -18 47 -102 159 -288 46 -77 90 -151 97 -165 12 -21 14
-22 14 -6 0 11 35 76 79 145 43 69 93 152 111 184 17 31 36 55 40 52 5 -3 12
0 16 6 4 8 3 9 -4 5 -15 -9 -15 6 0 40 11 23 10 28 -9 44 -12 10 -21 19 -19
21 2 2 -15 5 -39 5 -63 2 -75 9 -75 44 l0 30 215 0 215 0 0 -35 c0 -33 -2 -35
-39 -41 -24 -4 -49 -17 -64 -33 -28 -29 -232 -335 -318 -475 l-54 -89 0 -183
c0 -100 4 -186 8 -191 5 -4 42 -9 83 -11 l74 -4 0 -44 c0 -24 -4 -44 -10 -44
-5 0 -10 15 -10 34 l0 35 -70 7 c-43 4 -74 12 -82 22 -9 10 -14 66 -17 178 -3
157 -2 165 23 219 14 31 20 53 14 49 -8 -5 -9 -2 -5 9 3 10 2 17 -3 17 -6 0
-10 -5 -10 -11 0 -7 -8 -18 -17 -25 -16 -11 -21 -9 -41 14 -24 26 -171 270
-247 406 -38 67 -38 70 -22 98 9 15 12 28 8 28 -13 0 -30 -52 -28 -82 1 -14 5
-24 10 -21 4 2 10 -3 14 -12 3 -10 0 -21 -8 -26 -8 -5 -9 -9 -4 -9 6 0 3 -5
-5 -10 -13 -8 -12 -10 3 -10 9 0 17 7 17 16 0 8 4 13 10 9 5 -3 7 -12 3 -21
-3 -9 0 -14 7 -12 7 2 15 -4 18 -12 2 -8 1 -12 -3 -8 -5 5 -15 -1 -22 -12 -16
-23 -33 -18 -33 11 0 10 -4 19 -9 19 -6 0 -6 -12 0 -30 13 -35 18 -37 49 -10
18 16 25 17 32 8 14 -23 9 -36 -12 -31 -12 3 -20 0 -20 -8 0 -7 -7 -21 -17
-31 -9 -10 -12 -18 -7 -18 13 0 10 -53 -4 -58 -6 -2 -9 6 -6 20 4 21 4 21 -4
3 -5 -11 -7 -27 -4 -35 9 -25 42 -41 42 -20 0 6 -7 10 -15 10 -13 0 -13 2 -3
14 10 10 15 11 21 2 8 -10 4 8 -11 43 -3 9 -1 12 6 7 6 -3 14 -2 17 4 4 6 1 9
-6 8 -6 -2 -13 2 -16 9 -3 8 3 11 16 8 23 -4 30 20 9 29 -7 2 -3 4 9 2 24 -2
44 -16 25 -16 -7 0 -12 -5 -12 -11 0 -8 4 -8 14 0 10 9 15 8 20 -4 3 -8 0 -15
-6 -15 -13 0 -1 -14 13 -16 22 -3 23 -5 9 -14 -13 -8 -12 -11 5 -16 22 -6 68
-80 79 -128 6 -26 5 -28 -9 -16 -9 7 -13 21 -10 31 4 12 -1 22 -15 29 -11 6
-19 14 -16 18 5 9 -56 9 -69 0 -6 -4 -11 2 -11 13 0 11 6 17 12 15 8 -3 10 3
6 16 -4 18 -6 18 -14 4 -5 -9 -15 -16 -23 -16 -11 0 -27 -26 -30 -50 0 -3 -4
-11 -9 -18 -5 -8 -1 -21 11 -35 26 -32 36 -37 49 -27 11 10 24 3 24 -12 0 -5
-7 -8 -16 -6 -10 2 -19 -3 -22 -11 -3 -9 0 -11 7 -7 6 4 11 4 10 -1 -4 -20 2
-34 11 -28 6 4 22 -5 36 -19 24 -23 24 -25 5 -23 -11 0 -19 4 -19 7 1 17 -3
30 -11 30 -5 0 -5 -16 -1 -37 11 -49 11 -351 0 -358 -5 -3 -9 79 -10 182 l-1
188 -48 75 c-323 506 -332 517 -401 528 -42 7 -45 10 -48 40 l-3 32 265 0 266
0 0 -34z m-54 -447 c1 -5 2 -16 3 -24 1 -13 3 -13 15 -3 8 7 12 16 9 21 -2 4
1 7 6 7 6 0 11 -5 11 -11 0 -5 5 -7 11 -3 6 3 15 0 20 -7 13 -21 11 -35 -3
-21 -15 15 -32 16 -23 1 4 -6 1 -10 -6 -8 -32 4 -41 -1 -36 -21 6 -24 3 -25
-28 -4 -25 16 -24 44 1 44 11 0 12 4 5 19 -6 10 -7 21 -4 25 7 7 17 -1 19 -15z
m57 -69 c4 0 5 5 2 10 -3 6 -1 10 4 10 6 0 11 -6 11 -12 0 -10 3 -9 9 1 7 11
16 6 41 -20 17 -19 29 -29 26 -22 -4 6 -2 14 2 17 5 3 9 -7 8 -21 -1 -14 -7
-28 -15 -31 -9 -3 -11 0 -6 8 5 9 4 11 -4 6 -7 -5 -16 4 -24 22 -9 23 -16 28
-31 22 -19 -6 -18 -7 3 -13 18 -4 22 -10 16 -24 -4 -10 -8 -26 -9 -35 0 -9 -5
-14 -11 -10 -5 4 -12 7 -15 7 -3 0 -14 6 -25 14 -18 11 -18 12 -1 7 14 -5 17
-2 12 9 -3 9 -2 13 4 10 13 -8 13 5 0 25 -9 13 -10 13 -10 0 -1 -12 -4 -11
-15 4 -16 21 -9 44 8 27 6 -6 15 -11 20 -11z m72 -70 c6 -10 45 -7 64 4 5 3
14 -1 21 -9 11 -14 15 -14 36 0 28 18 31 14 8 -9 -14 -14 -21 -42 -23 -87 -1
-9 -8 -16 -16 -16 -9 0 -14 6 -11 14 3 7 -6 25 -20 40 -23 25 -23 28 -8 33 12
4 14 9 7 13 -7 4 -14 3 -18 -2 -3 -6 -12 -8 -20 -5 -9 4 -13 -2 -11 -19 2 -20
-1 -23 -16 -19 -15 4 -17 7 -6 13 9 6 10 9 1 9 -7 0 -12 11 -11 25 2 26 12 32
23 15z m35 -58 c0 -10 5 -23 12 -30 9 -9 8 -12 -7 -12 -10 0 -16 3 -12 6 3 3
2 17 -3 30 -6 15 -6 24 0 24 6 0 10 -8 10 -18z m-76 -34 c-3 -4 1 -8 8 -9 10
0 10 -2 1 -6 -7 -2 -13 -11 -13 -19 0 -8 -6 -14 -12 -14 -9 0 -8 -3 2 -9 8 -6
18 -7 22 -5 4 3 8 0 8 -6 0 -7 -7 -10 -15 -6 -8 3 -19 -2 -23 -11 -8 -13 -9
-10 -9 11 0 14 3 29 8 32 5 3 9 10 9 15 0 6 -4 8 -8 5 -4 -2 -8 3 -9 13 -1 10
6 17 17 17 10 0 16 -4 14 -8z m49 -45 c-5 -12 -7 -12 -14 -1 -5 7 -9 19 -9 27
0 11 3 11 14 1 8 -6 12 -18 9 -27z m80 3 c19 6 20 5 8 -10 -16 -19 -42 -5 -40
23 1 13 2 13 6 -2 3 -13 10 -16 26 -11z m-8 -66 c4 -17 3 -21 -3 -12 -5 8 -12
12 -15 10 -3 -1 -16 8 -29 21 -17 19 -18 23 -5 18 19 -7 22 3 7 21 -5 7 1 2
14 -10 13 -13 27 -34 31 -48z m-45 -5 c14 -19 14 -19 -2 -6 -10 7 -18 18 -18
24 0 6 1 8 3 6 1 -2 9 -13 17 -24z m-42 -2 c-2 -12 4 -18 20 -19 27 -2 37 -10
23 -19 -6 -3 -11 -1 -11 5 0 6 -5 8 -10 5 -15 -9 -40 14 -33 31 7 20 14 18 11
-3z m-22 -25 c5 -8 2 -9 -9 -5 -10 4 -17 1 -17 -5 0 -6 -3 -9 -6 -5 -7 7 4 27
16 27 5 0 12 -5 16 -12z m99 2 c3 -5 1 -10 -4 -10 -6 0 -11 5 -11 10 0 6 2 10
4 10 3 0 8 -4 11 -10z m0 -51 c1 -11 -3 -23 -9 -26 -6 -3 -8 -3 -4 2 4 4 3 15
-2 25 -5 10 -6 20 -3 24 9 9 17 -1 18 -25z m-25 -15 c0 -7 -4 -16 -10 -19 -6
-3 -7 1 -4 10 4 8 0 23 -7 33 -13 15 -12 16 4 3 9 -7 17 -19 17 -27z m-45 6
c3 -6 -1 -7 -9 -4 -18 7 -21 14 -7 14 6 0 13 -4 16 -10z m-50 -9 c-3 -6 3 -14
12 -20 10 -6 13 -11 7 -11 -15 0 -36 25 -27 33 10 10 15 8 8 -2z m125 -25 c0
-2 -8 -10 -17 -17 -16 -13 -17 -12 -4 4 13 16 21 21 21 13z m-66 -23 c-10 -7
-21 -13 -26 -13 -4 0 -8 -7 -8 -16 0 -11 6 -15 20 -11 11 3 20 1 20 -4 0 -17
-35 -8 -65 17 -19 16 -22 22 -9 15 17 -8 25 -6 40 8 11 10 25 18 33 18 9 0 8
-4 -5 -14z m70 -39 c3 -8 2 -12 -4 -9 -6 3 -10 10 -10 16 0 14 7 11 14 -7z
m26 6 c0 -5 -2 -10 -4 -10 -3 0 -8 5 -11 10 -3 6 -1 10 4 10 6 0 11 -4 11 -10z
m-156 -42 c-5 -7 -8 -22 -6 -33 l2 -20 -9 20 c-7 18 7 60 17 50 2 -2 0 -10 -4
-17z m76 -8 c8 -5 11 -10 5 -10 -5 0 -17 5 -25 10 -8 5 -10 10 -5 10 6 0 17
-5 25 -10z m82 -21 c-3 -22 -7 -27 -13 -18 -8 12 -10 12 -18 1 -7 -11 -9 -10
-15 3 -3 9 -10 13 -16 10 -6 -3 -7 1 -4 10 6 14 8 14 19 -1 11 -16 14 -16 31
4 10 12 19 22 19 22 1 0 -1 -14 -3 -31z m-229 4 c3 -5 -18 -7 -46 -7 -67 2
-77 -3 -77 -36 0 -24 5 -29 28 -33 25 -4 25 -4 -5 -6 -33 -1 -33 0 -33 44 l0
45 64 0 c36 0 67 -3 69 -7z m117 -3 c0 -5 -5 -10 -11 -10 -5 0 -7 5 -4 10 3 6
8 10 11 10 2 0 4 -4 4 -10z m273 -27 c-7 -2 -19 -2 -25 0 -7 3 -2 5 12 5 14 0
19 -2 13 -5z m-228 -23 c3 -6 -1 -7 -9 -4 -18 7 -21 14 -7 14 6 0 13 -4 16
-10z m-165 -9 c0 10 2 11 8 2 4 -7 36 -11 85 -11 43 0 81 -2 84 -6 4 -3 -39
-6 -94 -6 -84 0 -102 3 -107 16 -5 14 -4 15 9 4 12 -10 15 -10 15 1z m278 -9
c30 -1 52 4 52 10 0 7 5 6 15 -2 8 -7 21 -10 30 -7 8 4 17 2 20 -3 4 -6 -35
-10 -102 -9 -59 0 -102 3 -95 6 6 2 9 10 5 16 -5 9 -3 9 8 0 8 -6 38 -11 67
-11z m-311 -8 c-3 -3 -12 -4 -19 -1 -8 3 -5 6 6 6 11 1 17 -2 13 -5z"/>
<path d="M3971 3455 c13 -13 28 -25 32 -25 5 0 1 7 -8 16 -9 9 -13 19 -9 23 4
3 9 0 11 -6 6 -15 39 -17 48 -3 9 14 82 12 88 -2 4 -10 6 -10 6 0 1 15 111 17
111 2 0 -5 5 -10 11 -10 5 0 7 5 3 11 -4 7 -1 10 7 7 10 -3 14 -20 13 -54 -1
-27 1 -41 3 -31 2 9 12 17 21 18 14 0 13 2 -2 8 -14 5 -16 10 -8 15 8 5 9 13
3 24 -7 14 -5 18 9 18 10 0 17 -4 14 -7 -2 -4 1 -11 7 -15 7 -4 9 -3 5 4 -8
13 10 26 25 16 8 -4 7 -9 -2 -16 -11 -8 -11 -9 1 -5 8 2 14 10 12 16 -3 18 55
13 74 -6 17 -17 18 -17 11 0 -4 10 -7 21 -7 23 0 2 -113 4 -251 4 l-251 0 23
-25z m66 9 c-3 -3 -12 -4 -19 -1 -8 3 -5 6 6 6 11 1 17 -2 13 -5z"/>
<path d="M4750 3469 c0 -5 5 -7 10 -4 6 3 10 8 10 11 0 2 -4 4 -10 4 -5 0 -10
-5 -10 -11z"/>
<path d="M4823 3473 c15 -2 37 -2 50 0 12 2 0 4 -28 4 -27 0 -38 -2 -22 -4z"/>
<path d="M4918 3473 c12 -2 32 -2 45 0 12 2 2 4 -23 4 -25 0 -35 -2 -22 -4z"/>
<path d="M5014 3468 c12 -7 21 -7 28 0 6 6 0 10 -18 10 -23 0 -24 -2 -10 -10z"/>
<path d="M4106 3443 c10 -7 25 -12 33 -12 13 1 12 2 -1 6 -10 2 -18 8 -18 12
0 4 -7 8 -16 8 -14 0 -14 -2 2 -14z"/>
<path d="M4186 3442 c-4 -12 -12 -19 -18 -16 -6 4 -8 2 -4 -4 3 -5 0 -13 -6
-16 -7 -2 -2 -3 12 -2 17 2 24 9 22 20 -2 11 2 14 13 10 10 -4 14 -13 10 -22
-3 -8 0 -19 7 -24 8 -5 -1 -7 -24 -4 -26 4 -38 2 -42 -9 -3 -8 -1 -15 5 -15 6
0 7 -5 4 -10 -5 -8 -11 -7 -21 1 -11 9 -14 9 -14 -1 0 -10 -3 -10 -15 0 -20
17 -19 31 2 23 15 -6 16 -5 3 9 -12 13 -16 13 -23 3 -4 -9 4 -30 23 -57 17
-24 45 -64 62 -90 32 -47 32 -47 50 -26 21 24 23 32 6 22 -8 -5 -9 -2 -4 12 8
21 9 24 7 42 0 7 -6 10 -13 6 -8 -5 -9 -2 -5 9 3 9 2 19 -3 22 -6 4 -10 -5
-10 -19 0 -22 -4 -25 -26 -24 l-26 2 22 18 c17 14 18 18 7 18 -9 0 -19 5 -23
12 -5 8 0 9 14 6 12 -4 20 -2 17 2 -3 5 1 11 7 14 7 3 4 4 -6 3 -10 -1 -21 3
-23 10 -4 12 26 11 47 -2 6 -3 10 0 11 7 0 7 4 4 9 -7 5 -12 9 -14 9 -6 1 8
-6 23 -16 33 -11 13 -12 18 -3 18 10 0 10 3 -1 16 -11 13 -9 15 12 11 13 -2
18 -2 12 0 -7 3 -13 8 -13 12 0 4 -7 8 -15 8 -8 0 -12 -4 -9 -9 3 -4 1 -8 -5
-8 -5 0 -11 6 -14 13 -2 7 -7 2 -11 -11z m-26 -122 c6 -11 7 -20 3 -20 -5 0
-14 9 -21 20 -7 11 -8 20 -2 20 5 0 14 -9 20 -20z m70 -57 c0 -15 -2 -16 -10
-3 -8 13 -10 13 -10 -2 0 -9 5 -20 10 -23 6 -4 8 -11 4 -16 -9 -16 -34 10 -27
28 5 12 2 14 -8 9 -8 -4 -5 0 5 8 26 21 36 20 36 -1z"/>
<path d="M4057 3434 c3 -8 1 -14 -5 -14 -6 0 -12 5 -14 12 -3 7 -7 8 -10 2 -4
-5 6 -17 22 -26 27 -15 27 -15 24 6 -2 11 -2 15 2 9 3 -7 18 -12 32 -12 24 2
24 2 5 6 -13 2 -23 8 -23 13 0 4 -9 10 -19 13 -14 3 -18 1 -14 -9z"/>
<path d="M4255 3390 c3 -5 8 -10 11 -10 2 0 4 5 4 10 0 6 -5 10 -11 10 -5 0
-7 -4 -4 -10z"/>
<path d="M5019 3373 c-13 -16 -12 -17 4 -4 16 13 21 21 13 21 -2 0 -10 -8 -17
-17z"/>
<path d="M4891 3364 c0 -11 3 -14 6 -6 3 7 2 16 -1 19 -3 4 -6 -2 -5 -13z"/>
<path d="M4286 3348 c5 -8 2 -9 -10 -5 -27 10 -32 -21 -7 -44 12 -11 19 -24
16 -29 -3 -4 2 -10 10 -14 18 -7 20 5 3 23 -11 11 -9 11 10 2 35 -18 26 -5
-13 18 -42 24 -45 37 -8 36 15 0 28 6 30 15 4 13 3 13 -6 0 -7 -10 -11 -11
-11 -2 0 6 -5 12 -11 12 -5 0 -7 -5 -3 -12z"/>
<path d="M4971 3307 c-13 -21 -12 -21 5 -5 10 10 16 20 13 22 -3 3 -11 -5 -18
-17z"/>
<path d="M4928 3243 c-54 -82 -60 -93 -55 -93 4 0 18 20 71 103 10 15 16 27
13 27 -2 0 -15 -17 -29 -37z"/>
<path d="M4261 3228 c1 -17 3 -18 6 -6 3 11 11 15 21 12 15 -5 15 -4 2 5 -23
16 -30 13 -29 -11z"/>
<path d="M4350 3230 c0 -5 5 -10 11 -10 5 0 7 5 4 10 -3 6 -8 10 -11 10 -2 0
-4 -4 -4 -10z"/>
<path d="M4307 3214 c-8 -8 3 -34 15 -34 7 0 6 5 -1 13 -6 8 -8 17 -4 20 3 4
4 7 1 7 -2 0 -7 -3 -11 -6z"/>
<path d="M4860 3205 c-11 -13 -10 -14 4 -9 9 3 16 10 16 15 0 13 -6 11 -20 -6z"/>
<path d="M4230 3185 c-9 -11 -7 -18 9 -34 32 -32 75 -25 48 7 -10 13 -9 15 6
9 15 -6 16 -4 6 16 -12 21 -12 21 -20 2 -4 -11 -8 -15 -8 -9 -1 18 -28 24 -41
9z m45 -25 c16 -18 16 -20 2 -20 -10 0 -17 5 -17 11 0 5 -4 8 -9 5 -5 -3 -11
1 -15 9 -8 22 18 18 39 -5z"/>
<path d="M4791 3167 c-13 -21 -12 -21 5 -5 10 10 16 20 13 22 -3 3 -11 -5 -18
-17z"/>
<path d="M4334 3158 c2 -7 -6 -18 -18 -25 -21 -12 -21 -12 0 -10 11 0 29 12
39 26 14 19 14 22 3 13 -11 -9 -18 -9 -21 -2 -3 6 -4 5 -3 -2z"/>
<path d="M4847 3122 c-10 -10 -17 -23 -17 -28 -1 -17 -39 -56 -50 -49 -5 3
-10 1 -10 -4 0 -6 7 -11 15 -11 12 0 48 45 79 98 11 18 2 15 -17 -6z"/>
<path d="M4264 3113 c4 -5 13 -8 19 -8 7 0 12 -12 13 -26 1 -30 11 -49 25 -49
6 0 7 9 3 23 -4 12 -7 30 -6 40 0 9 -3 15 -8 12 -5 -3 -11 -1 -15 5 -3 5 -13
10 -22 10 -9 0 -13 -3 -9 -7z"/>
<path d="M4415 3110 c-3 -5 -1 -10 4 -10 6 0 11 5 11 10 0 6 -2 10 -4 10 -3 0
-8 -4 -11 -10z"/>
<path d="M4400 3075 c5 -7 6 -16 2 -20 -4 -5 -1 -5 6 -1 17 10 15 33 -3 33
-10 0 -12 -4 -5 -12z"/>
<path d="M4780 3070 c-9 -6 -10 -10 -3 -10 6 0 15 5 18 10 8 12 4 12 -15 0z"/>
<path d="M4726 3062 c-2 -4 4 -8 14 -8 10 0 16 4 14 8 -3 4 -9 8 -14 8 -5 0
-11 -4 -14 -8z"/>
<path d="M4455 3050 c3 -5 8 -10 11 -10 2 0 4 5 4 10 0 6 -5 10 -11 10 -5 0
-7 -4 -4 -10z"/>
<path d="M4343 3014 c-7 -3 -9 -12 -6 -20 8 -20 18 -17 20 6 1 11 1 20 0 19
-1 0 -7 -3 -14 -5z"/>
<path d="M4770 3000 c-6 -11 -8 -20 -6 -20 3 0 10 9 16 20 6 11 8 20 6 20 -3
0 -10 -9 -16 -20z"/>
<path d="M4725 2980 c-3 -6 1 -7 9 -4 18 7 21 14 7 14 -6 0 -13 -4 -16 -10z"/>
<path d="M4696 2957 c3 -10 9 -15 12 -12 3 3 0 11 -7 18 -10 9 -11 8 -5 -6z"/>
<path d="M4720 2920 c-6 -11 -8 -20 -6 -20 3 0 10 9 16 20 6 11 8 20 6 20 -3
0 -10 -9 -16 -20z"/>
<path d="M4395 2960 c3 -5 8 -10 11 -10 2 0 4 5 4 10 0 6 -5 10 -11 10 -5 0
-7 -4 -4 -10z"/>
<path d="M4486 2895 c-3 -8 0 -17 6 -21 6 -4 8 -3 4 4 -3 5 -1 12 6 14 8 3 9
6 1 11 -6 4 -13 0 -17 -8z"/>
<path d="M4617 2837 c-6 -17 18 -63 27 -49 3 6 2 13 -4 17 -5 3 -10 11 -10 16
0 6 5 7 11 3 7 -4 10 -1 7 6 -6 19 -25 23 -31 7z"/>
<path d="M4590 2691 c0 -5 5 -13 10 -16 6 -3 10 -2 10 4 0 5 -4 13 -10 16 -5
3 -10 2 -10 -4z"/>
<path d="M6360 3502 c-52 -3 -56 -5 -73 -40 -9 -20 -19 -46 -21 -57 -5 -28 28
-65 61 -69 15 -2 32 -4 36 -5 5 0 5 -5 2 -11 -3 -5 -1 -10 4 -10 6 0 10 -3 10
-7 -1 -5 0 -10 1 -13 17 -44 22 -338 6 -359 -6 -9 -7 -12 -1 -9 7 4 10 -74 10
-233 l0 -239 -32 0 c-42 0 -63 -9 -63 -27 0 -8 -7 -21 -15 -29 -24 -24 -30
-82 -11 -103 18 -20 33 -22 181 -23 177 -3 315 11 358 35 37 21 38 22 35 77
l-3 55 -50 5 c-27 3 -56 9 -62 13 -10 6 -13 55 -13 186 0 177 0 177 23 178 12
0 45 1 72 2 28 2 52 2 55 1 15 -5 60 -5 60 0 0 3 30 2 68 -3 37 -5 76 -9 88
-9 39 -1 52 -43 59 -194 4 -82 11 -142 18 -146 10 -6 -21 -14 -83 -20 -17 -2
-26 -10 -28 -26 -2 -12 -7 -20 -12 -17 -5 3 -12 -9 -16 -27 -11 -49 -12 -68
-2 -68 5 0 7 -4 3 -10 -8 -12 71 -33 107 -28 16 3 31 1 34 -4 3 -5 9 -6 13 -3
5 2 83 5 175 6 161 2 168 3 206 28 38 24 40 28 40 77 0 57 -7 64 -65 64 -67 0
-65 -14 -64 448 1 395 4 464 21 463 12 -1 40 10 76 27 30 15 32 20 32 68 l0
51 -46 7 c-68 9 -467 7 -482 -2 -18 -12 -52 -78 -52 -101 0 -22 43 -74 53 -64
10 9 57 -42 63 -69 3 -12 7 -70 9 -127 3 -70 9 -107 17 -113 7 -4 -89 -8 -214
-8 l-228 0 0 163 c0 139 2 164 15 164 8 0 38 10 65 23 l50 23 0 53 c0 43 -4
54 -19 59 -18 5 -352 3 -471 -3z m480 -51 l0 -39 -53 -6 c-86 -11 -82 -2 -85
-210 -2 -156 0 -185 13 -190 8 -3 126 -6 262 -6 l248 -1 3 195 2 195 -75 12
-75 13 0 38 0 38 255 0 255 0 0 -40 c0 -38 -2 -40 -29 -40 -36 0 -83 -17 -93
-33 -4 -7 -8 -215 -8 -464 0 -379 2 -454 14 -466 8 -8 37 -17 65 -21 l51 -7 0
-40 0 -39 -252 2 -253 3 -3 39 c-4 49 6 56 86 56 l62 0 0 225 0 225 -259 0
c-227 0 -260 -2 -265 -16 -8 -22 -7 -340 2 -389 8 -42 7 -42 110 -61 18 -4 22
-11 22 -44 l0 -40 -255 0 -255 0 0 44 0 45 43 6 c24 4 52 6 63 5 10 -1 25 -2
32 -1 9 1 12 103 12 475 l0 474 -50 11 c-28 6 -62 11 -75 11 -22 0 -25 4 -25
40 l0 40 255 0 255 0 0 -39z"/>
<path d="M6683 2805 c0 -33 2 -45 4 -27 2 18 2 45 0 60 -2 15 -4 0 -4 -33z"/>
<path d="M6682 2588 c-1 -75 1 -139 6 -141 4 -3 6 38 4 91 -4 172 -8 190 -10
50z"/>
<path d="M7445 2450 c3 -14 8 -33 10 -44 2 -10 7 -21 11 -25 4 -3 4 2 1 11 -5
15 -1 16 26 12 18 -3 38 -7 45 -10 6 -2 12 1 12 6 0 6 -12 10 -26 10 -34 0
-63 17 -75 43 -9 20 -9 20 -4 -3z"/>
<path d="M6368 2413 c18 -2 45 -2 60 0 15 2 0 4 -33 4 -33 0 -45 -2 -27 -4z"/>
<path d="M6730 2411 c8 -6 29 -11 47 -11 27 0 32 -4 36 -27 4 -26 4 -26 6 5 1
29 -2 32 -26 32 -16 0 -39 3 -53 6 -20 4 -22 3 -10 -5z"/>
<path d="M7118 2413 c12 -2 30 -2 40 0 9 3 -1 5 -23 4 -22 0 -30 -2 -17 -4z"/>
<path d="M6342 2375 c0 -16 2 -22 5 -12 2 9 2 23 0 30 -3 6 -5 -1 -5 -18z"/>
<path d="M6400 2375 c-7 -9 -8 -15 -2 -15 5 0 12 7 16 15 3 8 4 15 2 15 -2 0
-9 -7 -16 -15z"/>
<path d="M7100 2365 c0 -8 2 -15 4 -15 2 0 6 7 10 15 3 8 1 15 -4 15 -6 0 -10
-7 -10 -15z"/>
<path d="M7285 2370 c3 -5 8 -10 11 -10 2 0 4 5 4 10 0 6 -5 10 -11 10 -5 0
-7 -4 -4 -10z"/>
</g>
</svg>
